<svg width="4000" height="4000" viewBox="0 0 4000 4000" fill="none" xmlns="http://www.w3.org/2000/svg">
<path d="M4000 0H0V4000H4000V0Z" fill="#8DBF4E"/>
<path d="M1001.8 3424.4C1043.4 3415.8 1085 3413.5 1126.6 3412.6C1168.2 3411.4 1209.8 3412 1251.4 3412.7C1293 3413.2 1334.6 3413.3 1376.2 3413.3H1501H2000H2499.1H2748.7H2811.1C2831.9 3413.3 2852.7 3412.5 2873.5 3412.2C2915.1 3412 2956.7 3412.5 2998.3 3424.4C3001.4 3425.3 3003.1 3428.5 3002.3 3431.6C3001.7 3433.6 3000.2 3435 2998.3 3435.6C2956.7 3447.5 2915.1 3448 2873.5 3447.8C2852.7 3447.4 2831.9 3446.7 2811.1 3446.7H2748.7H2499.1H2000H1500.9H1376.1C1334.5 3446.6 1292.9 3446.7 1251.3 3447.3C1209.7 3447.9 1168.1 3448.6 1126.5 3447.4C1084.9 3446.5 1043.3 3444.2 1001.7 3435.6C998.6 3435 996.7 3432 997.3 3428.9C997.8 3426.6 999.6 3424.9 1001.8 3424.4Z" fill="#1E1B24"/>
<path d="M1391 2280.5C1391 2280.5 1259.9 2206.6 1284.9 2064.9C1306 1945.1 1411.6 1912.6 1469.5 1903.8C1488.3 1900.9 1504.9 1916.4 1503.3 1935.4C1496.9 2010.5 1500.8 2188.3 1663 2280.4H1391V2280.5Z" fill="#F99B28"/>
<g opacity="0.4">
<path d="M1663 2280.5H1589.6C1470.8 2183.9 1468.2 2033.1 1474 1965.5C1475.6 1946.5 1459.1 1931 1440.2 1933.9C1407.3 1938.9 1359 1951.5 1319.6 1983.5C1361.4 1928.9 1427.8 1910.2 1469.6 1903.9C1488.4 1901.1 1505 1916.6 1503.4 1935.5C1496.9 2010.6 1500.8 2188.4 1663 2280.5Z" fill="white"/>
</g>
<path d="M1663 2280.5H1391C1391 2280.5 1260 2206.6 1284.9 2064.9C1294.1 2012.5 1319.5 1976.8 1350 1952.5C1337.8 1983 1333.1 2019.3 1342.7 2061.7C1374.4 2202 1523.8 2219.6 1523.8 2219.6L1570.1 2200.2C1593 2230.2 1623.3 2257.9 1663 2280.5Z" fill="white"/>
<path d="M1723.5 2296.5H1386.8L1383.1 2294.4C1381.7 2293.6 1242.5 2213.1 1269.1 2062.1C1291.8 1933.2 1402.9 1897.7 1467.1 1887.9C1481 1885.8 1494.8 1890.1 1505 1899.7C1515.2 1909.3 1520.4 1922.8 1519.2 1936.7C1513.2 2006.6 1516.1 2178.6 1670.8 2266.5L1723.5 2296.5ZM1395.4 2264.5H1610.8C1483.7 2162.8 1481.5 2002.9 1487.3 1934.1C1487.7 1930 1486.1 1926 1483.1 1923.1C1480.1 1920.3 1476 1919 1471.9 1919.6C1416.2 1928 1319.9 1958.5 1300.6 2067.7C1279.9 2185.4 1375.4 2252 1395.4 2264.5Z" fill="#1E1B24"/>
<g opacity="0.3">
<path d="M1663 2280.5H1391C1391 2280.5 1260 2206.6 1284.9 2064.9C1290.2 2035 1300.7 2010.5 1314.5 1990.5C1314.6 1992.4 1314.7 1994.3 1314.9 1996.3C1325.8 2139.7 1471.1 2178.9 1471.1 2178.9L1544.5 2160.1C1568.8 2205.4 1606.2 2248.2 1663 2280.5Z" fill="#6B184E"/>
<path d="M1672.5 2283H1390.4L1389.8 2282.7C1388.5 2282 1257.5 2206.3 1282.5 2064.5C1287.5 2036.1 1297.6 2010.7 1312.5 1989.1L1316.7 1982.9L1317 1990.4C1317.1 1992.3 1317.2 1994.2 1317.4 1996.1C1327.7 2131.4 1460.9 2173.3 1471.1 2176.3L1545.7 2157.2L1546.6 2158.9C1573.6 2209.1 1613.2 2249.3 1664.2 2278.3L1672.5 2283ZM1391.7 2278H1653.8C1606.3 2249.3 1569.2 2210.7 1543.2 2163L1471.1 2181.4L1470.5 2181.2C1469 2180.8 1324.4 2140.2 1312.6 1998C1300.4 2017.6 1291.9 2040.2 1287.5 2065.2C1263.8 2199 1382.5 2272.5 1391.7 2278Z" fill="#1E1B24"/>
</g>
<path d="M2488.4 2560.5H1511.7C1511.7 2560.5 1427.4 2594.4 1484.1 2263.9C1506.4 2133.7 1571.5 2064.9 1612.9 1970.3C1619 1956.2 1624.7 1941.6 1629.6 1926.1C1629.6 1926.1 1629.6 1926.1 1629.6 1926C1639.1 1895.9 1645.8 1862.6 1648.1 1823.8C1648.6 1815.5 1648.9 1806.9 1649 1798H2351.2C2351.3 1805.8 2351.5 1813.4 2351.9 1820.8C2354.1 1862.1 2361.2 1897.3 2371.5 1928.9C2376.2 1943.3 2381.5 1957 2387.3 1970.2C2428.7 2064.8 2493.8 2133.6 2516.1 2263.8C2572.6 2594.4 2488.4 2560.5 2488.4 2560.5Z" fill="#F99B28"/>
<path d="M2310.3 2084.6C2226.4 2180.9 2234.4 2345.2 2234.4 2345.2H1766.4C1766.4 2345.2 1774.5 2180.9 1690.5 2084.6C1644.1 2031.3 1629.8 1974.7 1629.4 1926.1C1629.4 1926.1 1629.4 1926.1 1629.4 1926C1638.9 1895.9 1645.6 1862.5 1647.9 1823.9C1654 1807.6 1659.2 1798.1 1659.2 1798.1H2341.5C2341.5 1798.1 2346.1 1806.4 2351.7 1820.9C2353.9 1862.2 2361 1897.4 2371.3 1929C2370.4 1977 2355.9 2032.4 2310.3 2084.6Z" fill="white"/>
<path d="M2494.7 2577.5C2488 2577.5 2483.3 2575.7 2482.4 2575.4L2494.3 2545.7C2494.3 2545.7 2494 2545.6 2493.5 2545.4C2494.2 2545.6 2496.9 2546 2500.5 2542.7C2510 2534 2538.1 2488.2 2500.2 2266.6C2485.7 2182.2 2452.1 2123.4 2419.6 2066.6C2380.3 1997.9 2339.7 1927 2335.4 1814.1H1664.5C1660.2 1927 1619.6 1997.9 1580.3 2066.6C1547.8 2123.4 1514.2 2182.1 1499.7 2266.6C1461.7 2488.2 1489.8 2533.9 1499.4 2542.7C1503 2546 1505.6 2545.6 1506.4 2545.4C1505.9 2545.5 1505.6 2545.7 1505.6 2545.7L1517.5 2575.4C1515.5 2576.2 1497.9 2582.7 1480 2568.3C1441.9 2537.5 1438 2437.1 1468.1 2261.2C1483.5 2171.2 1518.6 2110 1552.4 2050.8C1593.3 1979.4 1631.9 1911.9 1632.7 1798L1632.8 1782.1H2366.7L2366.8 1798C2367.7 1911.8 2406.3 1979.3 2447.1 2050.8C2481 2110 2516 2171.3 2531.4 2261.2C2561.5 2437 2557.7 2537.5 2519.5 2568.3C2510.8 2575.6 2501.7 2577.5 2494.7 2577.5Z" fill="#1E1B24"/>
<g opacity="0.3">
<path d="M2387.2 1970.3C2147.5 2128.6 1852.5 2128.6 1612.8 1970.3C1618.9 1956.2 1624.6 1941.6 1629.5 1926.1C1629.5 1926.1 1629.5 1926.1 1629.5 1926C1631.7 1919.1 1633.7 1912 1635.6 1904.7C1638.8 1892.3 1641.5 1879.3 1643.6 1865.7C1866.2 1988.8 2134 1991.1 2357.2 1870.9C2359.2 1882.7 2361.6 1893.9 2364.4 1904.7C2366.5 1913 2368.9 1921.1 2371.4 1928.9C2376.1 1943.4 2381.4 1957.1 2387.2 1970.3Z" fill="#1E1B24"/>
</g>
<g opacity="0.3">
<path d="M1691.5 2187C1680.4 2192.6 1674.2 2205 1671.8 2221.2C1665.8 2261.9 1671.9 2326.5 1626.8 2375.9C1562.8 2446 1394.8 2463.1 1343.3 2373.5C1310.1 2315.9 1303 2241.3 1318.9 2186.9H1691.5V2187Z" fill="#6B184E"/>
<path d="M1472.3 2437.3C1464.2 2437.3 1456.1 2436.9 1448.2 2436C1398.7 2430.6 1360.7 2408.9 1341.1 2374.9C1309.4 2319.9 1299.6 2244.1 1316.5 2186.4L1317 2184.6H1702L1692.6 2189.3C1682.9 2194.2 1676.7 2205.1 1674.3 2221.7C1673 2230.2 1672.3 2239.8 1671.5 2250.1C1668.5 2289.3 1664.8 2338.1 1628.6 2377.8C1595.6 2413.9 1532.7 2437.3 1472.3 2437.3ZM1320.8 2189.5C1304.9 2245.8 1314.7 2318.9 1345.4 2372.3C1364.1 2404.9 1400.8 2425.7 1448.7 2431C1514.2 2438.2 1588.3 2414.3 1624.9 2374.3C1659.9 2335.9 1663.5 2288.1 1666.5 2249.6C1667.3 2239.3 1668 2229.5 1669.3 2220.9C1671.4 2206.7 1676.1 2196.2 1683.4 2189.5H1320.8V2189.5Z" fill="#1E1B24"/>
</g>
<g opacity="0.3">
<path d="M2303.5 2187C2314.6 2192.6 2320.8 2205 2323.2 2221.2C2329.2 2261.9 2323.1 2326.5 2368.2 2375.9C2432.2 2446 2600.2 2463.1 2651.7 2373.5C2684.9 2315.9 2692 2241.3 2676.1 2186.9H2303.5V2187Z" fill="#6B184E"/>
<path d="M2522.6 2437.3C2462.3 2437.3 2399.4 2414 2366.3 2377.7C2330.1 2338.1 2326.4 2289.3 2323.4 2250C2322.6 2239.8 2321.9 2230.1 2320.6 2221.6C2318.2 2205 2312 2194.1 2302.3 2189.2L2292.9 2184.5H2677.9L2678.4 2186.3C2695.4 2244 2685.5 2319.8 2653.8 2374.8C2634.2 2408.8 2596.2 2430.5 2546.7 2435.9C2538.8 2436.9 2530.7 2437.3 2522.6 2437.3ZM2311.5 2189.5C2318.8 2196.1 2323.6 2206.6 2325.6 2220.9C2326.9 2229.6 2327.6 2239.3 2328.4 2249.6C2331.3 2288.1 2335 2335.9 2370 2374.3C2406.6 2414.3 2480.6 2438.2 2546.2 2431C2594.1 2425.8 2630.8 2404.9 2649.5 2372.3C2680.2 2318.9 2690 2245.7 2674.1 2189.5H2311.5V2189.5Z" fill="#1E1B24"/>
</g>
<path d="M2712.4 2206.6C2777 2610.3 2777 3021.7 2712.4 3425.4H1287.6C1223 3021.7 1223 2610.3 1287.6 2206.6H2712.4V2206.6Z" fill="#EA9628"/>
<path d="M1287.6 3427.9H1285.5L1285.2 3425.8C1220.4 3021.2 1220.4 2610.8 1285.2 2206.2L1285.5 2204.1H2714.6L2714.9 2206.2C2779.7 2610.8 2779.7 3021.2 2714.9 3425.8L2714.6 3427.9H1287.6ZM1289.7 3422.9H2710.3C2774.5 3020.2 2774.5 2611.8 2710.3 2209.1H1289.7C1225.5 2611.8 1225.5 3020.2 1289.7 3422.9Z" fill="#1E1B24"/>
<path d="M2760.9 2807C2761.4 3013.8 2745.2 3220.6 2712.4 3425.4H1287.6C1255.3 3223.5 1239.1 3019.8 1239.1 2816V2807.1C1239.3 2697.3 1244.3 2587.4 1254 2477.8C1262 2387.1 1273.2 2296.7 1287.6 2206.6H2712.5C2726.9 2296.7 2738.1 2387.1 2746.1 2477.8C2755.7 2587.3 2760.6 2697.2 2760.9 2807Z" fill="#EA9628"/>
<path d="M2714.6 3427.9H1285.4L1285.1 3425.8C1252.9 3224.7 1236.6 3019.6 1236.6 2816V2807C1236.9 2697.4 1241.9 2586.6 1251.5 2477.5C1259.5 2387.1 1270.8 2295.8 1285.1 2206.2L1285.4 2204.1H2714.5L2714.8 2206.2C2729.1 2295.8 2740.4 2387.1 2748.4 2477.5C2758 2586.6 2763 2697.5 2763.3 2807C2763.8 3013.6 2747.5 3221.8 2714.8 3425.8L2714.6 3427.9ZM1289.7 3422.9H2710.3C2742.7 3219.8 2758.8 3012.6 2758.4 2807C2758.2 2697.6 2753.2 2586.9 2743.5 2477.9C2735.6 2388.3 2724.4 2297.9 2710.3 2209H1289.7C1275.5 2297.8 1264.4 2388.3 1256.5 2477.9C1246.9 2586.8 1241.9 2697.6 1241.6 2807V2815.9C1241.6 3018.6 1257.8 3222.8 1289.7 3422.9Z" fill="#1E1B24"/>
<g opacity="0.3">
<path d="M2760.9 2807C2761.4 3013.8 2745.2 3220.6 2712.4 3425.4H1287.6C1282.8 3395 1278.2 3364.6 1274.1 3334.1L1255.2 3167.5C1255.2 3167.5 1336.7 3254.4 1472.6 3289C1859.8 3387.5 2308.8 3348.5 2468 3280.5C2572.3 3235.9 2635 3177.1 2657.3 3085C2690.6 2947.8 2628.2 2807.1 2487 2807.1H1239.1C1239.3 2697.3 1244.3 2587.4 1254 2477.8L1287.5 2358.3H2712.5L2746 2477.8C2755.7 2587.3 2760.6 2697.2 2760.9 2807Z" fill="#1E1B24"/>
</g>
<path d="M1287.6 3441.4C1279.7 3441.4 1273 3435.7 1271.8 3427.9C1206.8 3021.9 1206.8 2610.1 1271.8 2204C1273 2196.2 1279.7 2190.5 1287.6 2190.5H2712.5C2720.4 2190.5 2727.1 2196.2 2728.3 2204C2793.3 2610 2793.3 3021.8 2728.3 3427.9C2727.1 3435.7 2720.4 3441.4 2712.5 3441.4H1287.6ZM1301.2 3409.4H2698.7C2760.3 3015.6 2760.3 2616.4 2698.7 2222.6H1301.2C1239.6 2616.4 1239.6 3015.6 1301.2 3409.4Z" fill="#1E1B24"/>
<path d="M2838.3 2655.4H1161.7L1273.6 2256.4V2256.3V2256.2L1287.5 2206.6H2712.5L2838.3 2655.4Z" fill="#EA9628"/>
<path d="M2841.6 2657.9H1158.4L1285.6 2204.1H2714.4L2841.6 2657.9ZM1165 2652.9H2835L2710.6 2209.1H1289.4L1165 2652.9Z" fill="#1E1B24"/>
<g opacity="0.4">
<path d="M1273.6 2296.4V2296.3V2296.2L1287.5 2246.6H2712.5L2827.1 2655.4H2838.3L2712.5 2206.6H1287.5L1273.6 2256.2V2256.3V2256.4L1161.7 2655.4H1172.9L1273.6 2296.4Z" fill="white"/>
</g>
<g opacity="0.4">
<path d="M2838.3 2655.4H1161.7L1273.6 2256.4C1272.6 2263.5 1227.3 2569.4 1260.1 2592.3C1299.4 2619.8 1711.6 2615.4 2097.1 2611.2C2397 2608 2688.6 2610.5 2724.6 2592.3C2779.6 2564.4 2717.9 2289.5 2697.9 2206.6H2712.5L2838.3 2655.4Z" fill="white"/>
</g>
<path d="M2838.3 2671.4H1161.7C1156.7 2671.4 1152 2669.1 1149 2665.1C1146 2661.1 1145 2655.9 1146.3 2651.1L1272.1 2202.3C1274 2195.4 1280.3 2190.6 1287.5 2190.6H2016.7H2016.8H2712.5C2719.7 2190.6 2726 2195.4 2727.9 2202.3L2853.7 2651.1C2855.1 2655.9 2854.1 2661.1 2851 2665.1C2848.1 2669 2843.3 2671.4 2838.3 2671.4ZM1182.8 2639.4H2817.2L2700.3 2222.6H2016.7H2016.6H1299.6L1182.8 2639.4Z" fill="#1E1B24"/>
<path d="M1673.2 2186.6C1655.6 2186.6 1646.7 2198.2 1643.9 2215.6C1638.8 2247.1 1644 2297.2 1605.7 2335.4C1551.4 2389.7 1408.9 2402.9 1365.2 2333.6C1328.5 2275.3 1329.3 2194.7 1362.3 2155.8C1433 2072.4 1554 2068.7 1640.4 2111.4C1671.8 2126.9 1731.9 2186.6 1731.9 2186.6H1673.2V2186.6Z" fill="white"/>
<g opacity="0.3">
<path d="M1732 2186.6H1673.2C1655.6 2186.6 1646.7 2198.2 1643.9 2215.6C1638.8 2247.1 1644 2297.2 1605.7 2335.4C1551.4 2389.7 1408.9 2402.9 1365.2 2333.5C1352.8 2313.8 1344.6 2291.5 1340.6 2269.1C1341.7 2270.9 1342.8 2272.7 1343.9 2274.5C1387.6 2343.9 1530.1 2330.7 1584.4 2276.4C1622.6 2238.1 1617.4 2188.1 1622.6 2156.6C1622.6 2156.4 1622.6 2156.2 1622.7 2156.1C1626.2 2135.5 1651.1 2126.9 1667.1 2140.4L1713.5 2179.7C1713.5 2179.7 1708.1 2170.2 1699.8 2156.4C1717.9 2172.7 1732 2186.6 1732 2186.6Z" fill="#1E1B24"/>
</g>
<path d="M1475.4 2397.1C1467 2397.1 1458.6 2396.7 1450.4 2395.7C1405.3 2390.6 1370.3 2371.6 1351.7 2342.2C1312.1 2279.4 1311.4 2191.2 1350.1 2145.5C1426.7 2055.1 1557.7 2052.7 1647.5 2097.1C1680.8 2113.6 1740.7 2172.7 1743.2 2175.2L1770.8 2202.6H1673.2C1668.8 2202.6 1662.2 2202.6 1659.7 2218.2C1658.7 2224.2 1658.1 2231.4 1657.5 2239.1C1654.9 2270.1 1651.4 2312.5 1617.1 2346.8C1586 2377.8 1530.3 2397.1 1475.4 2397.1ZM1525 2100.8C1469.5 2100.8 1413.6 2120.1 1374.5 2166.2C1345.2 2200.8 1347.2 2275 1378.7 2325.1C1392 2346.2 1418.7 2359.9 1453.9 2363.9C1505.5 2369.7 1565.9 2352.6 1594.3 2324.2C1620.3 2298.2 1623.1 2265.4 1625.5 2236.5C1626.2 2228.2 1626.8 2220.4 1628 2213.1C1632.4 2186.1 1648.8 2170.6 1673.1 2170.6H1691.5C1671.7 2152.8 1648 2133.1 1633.3 2125.8C1601.3 2110 1563.3 2100.8 1525 2100.8Z" fill="#1E1B24"/>
<path d="M2326.6 2186.6C2344.2 2186.6 2353.1 2198.2 2355.9 2215.6C2361 2247.1 2355.8 2297.2 2394.1 2335.4C2448.4 2389.7 2590.9 2402.9 2634.6 2333.6C2671.3 2275.3 2670.5 2194.7 2637.5 2155.8C2566.8 2072.4 2445.8 2068.7 2359.4 2111.4C2328 2126.9 2267.9 2186.6 2267.9 2186.6H2326.6V2186.6Z" fill="white"/>
<path d="M2524.4 2397.1C2469.5 2397.1 2413.8 2377.9 2382.8 2346.8C2348.5 2312.5 2344.9 2270.1 2342.4 2239.1C2341.8 2231.5 2341.2 2224.3 2340.2 2218.2C2337.7 2202.6 2331 2202.6 2326.7 2202.6H2229L2256.6 2175.2C2259.1 2172.7 2319 2113.5 2352.3 2097.1C2442.1 2052.7 2573.1 2055.1 2649.7 2145.5C2688.4 2191.2 2687.7 2279.4 2648.1 2342.2C2629.5 2371.7 2594.5 2390.7 2549.4 2395.7C2541.2 2396.6 2532.8 2397.1 2524.4 2397.1ZM2308.2 2170.6H2326.6C2350.9 2170.6 2367.3 2186.1 2371.7 2213.1C2372.9 2220.4 2373.5 2228.2 2374.2 2236.5C2376.6 2265.4 2379.3 2298.2 2405.4 2324.2C2433.8 2352.6 2494.2 2369.7 2545.8 2363.9C2581 2360 2607.7 2346.2 2621 2325.1C2652.6 2275 2654.5 2200.7 2625.2 2166.2C2559.2 2088.3 2445 2086.9 2366.4 2125.8C2351.8 2133.1 2328 2152.8 2308.2 2170.6Z" fill="#1E1B24"/>
<g opacity="0.3">
<path d="M2269.3 2186.6H2328.1C2345.7 2186.6 2354.6 2198.2 2357.4 2215.6C2362.5 2247.1 2357.3 2297.2 2395.6 2335.4C2449.9 2389.7 2592.4 2402.9 2636.1 2333.5C2648.5 2313.8 2656.7 2291.5 2660.7 2269.1C2659.6 2270.9 2658.5 2272.7 2657.4 2274.5C2613.7 2343.9 2471.2 2330.7 2416.9 2276.4C2378.7 2238.1 2383.9 2188.1 2378.7 2156.6C2378.7 2156.4 2378.7 2156.2 2378.6 2156.1C2375.1 2135.5 2350.2 2126.9 2334.2 2140.4L2287.8 2179.7C2287.8 2179.7 2293.2 2170.2 2301.5 2156.4C2283.4 2172.7 2269.3 2186.6 2269.3 2186.6Z" fill="#1E1B24"/>
</g>
<g opacity="0.3">
<path d="M2597.9 503.9C2582.7 499.7 2566.8 500.5 2550.3 507.1C2344.7 589 2211.4 794.6 2154.2 900.3C2136.8 932.5 2095.5 942.9 2064.8 923C2064.8 923 2210.7 577.4 2492.9 464.9C2531.9 449.4 2568 466 2597.9 503.9Z" fill="white"/>
<path d="M2099.1 935.3C2086.6 935.3 2074.2 931.7 2063.6 924.8C2062.7 924.2 2062.4 923.1 2062.8 922.1C2064.3 918.6 2212.3 574.3 2492.2 462.8C2530.1 447.7 2567.3 461.4 2599.7 502.5C2600.3 503.2 2600.3 504.3 2599.8 505.1C2599.3 505.9 2598.3 506.3 2597.4 506C2582.3 501.9 2566.8 502.9 2551.2 509.1C2348.6 589.8 2216.8 789.5 2156.2 901.3C2147.6 917.2 2132.6 928.8 2115.1 933.3C2109.8 934.7 2104.4 935.3 2099.1 935.3ZM2067.5 922.1C2081.4 930.5 2098.2 933.1 2113.9 929.1C2130.5 924.9 2144 914.3 2152.2 899.3C2213 786.9 2345.5 586.3 2549.4 505.1C2563.8 499.4 2578.1 497.8 2592.1 500.4C2562 464.9 2528 453.3 2493.7 467C2225.7 573.7 2079.2 895.6 2067.5 922.1Z" fill="#1E1B24"/>
</g>
<path d="M2471.4 1081.3C2446.1 1034.9 2374.8 984.4 2315.1 948.1C2261.3 915.3 2246.9 843.8 2283.2 792.3C2347.1 701.7 2428.5 635.6 2484.1 596.8C2517.1 573.8 2562.8 591.5 2571.9 630.7C2586 691.4 2597.2 784.8 2574.1 894.6C2549.2 1013.3 2477.8 1079.3 2477.8 1079.3" fill="#FF6C6C"/>
<path d="M2471.4 1083.5C2470.6 1083.5 2469.9 1083.1 2469.5 1082.4C2444.1 1035.7 2370.9 984.7 2314 950C2287.6 934 2269.6 908.4 2263.3 878.2C2257 848.1 2263.6 816.3 2281.4 791.1C2345.2 700.7 2426.2 634.6 2482.9 595.1C2498.9 583.9 2519.4 581.4 2537.7 588.5C2556 595.5 2569.6 611.2 2574.1 630.3C2588 689.9 2599.6 784.2 2576.4 895.1C2551.6 1013.1 2480.2 1080.3 2479.4 1080.9C2478.5 1081.7 2477.1 1081.7 2476.3 1080.8C2475.5 1079.9 2475.5 1078.5 2476.4 1077.7C2477.1 1077 2547.6 1010.8 2572 894.2C2595.1 784.1 2583.5 690.5 2569.8 631.3C2565.7 613.6 2553.1 599.1 2536.1 592.6C2518.9 586 2500.5 588.3 2485.4 598.7C2429 638 2348.4 703.8 2285 793.7C2267.9 817.9 2261.6 848.4 2267.6 877.4C2273.6 906.5 2290.9 931 2316.2 946.4C2373.6 981.3 2447.4 1032.9 2473.3 1080.4C2473.9 1081.5 2473.5 1082.8 2472.4 1083.4C2472.1 1083.4 2471.7 1083.5 2471.4 1083.5Z" fill="#1E1B24"/>
<path d="M2412.7 946.2C2408.4 966.7 2402.7 985.6 2396.2 1003C2370.2 983 2341.5 964.2 2315.1 948.1C2261.2 915.3 2246.9 843.8 2283.2 792.2C2319.5 740.7 2361.5 697.1 2401.2 661.9C2405.5 667.8 2408.7 674.6 2410.5 682.3C2424.6 743 2435.7 836.5 2412.7 946.2Z" fill="#FF6C6C"/>
<path d="M2396.2 1005.2C2395.7 1005.2 2395.2 1005 2394.9 1004.7C2372.1 987.2 2344.9 968.8 2314 950C2287.6 934 2269.6 908.5 2263.3 878.2C2257 848 2263.6 816.3 2281.4 791C2313.6 745.4 2353.4 701.4 2399.8 660.3C2400.3 659.9 2400.9 659.7 2401.5 659.8C2402.1 659.9 2402.7 660.2 2403 660.7C2407.6 667 2410.8 674.2 2412.6 681.9C2426.4 741.5 2438.1 835.9 2414.8 946.7C2410.8 965.9 2405.2 985.1 2398.2 1003.8C2398 1004.5 2397.4 1005 2396.7 1005.1C2396.6 1005.1 2396.4 1005.2 2396.2 1005.2ZM2400.8 665.3C2355.5 705.7 2316.5 748.8 2285 793.5C2267.9 817.8 2261.6 848.3 2267.6 877.3C2273.7 906.4 2290.9 930.9 2316.2 946.3C2346.2 964.5 2372.7 982.4 2395.1 999.5C2401.5 981.9 2406.7 963.8 2410.5 945.9C2433.6 835.9 2422.1 742.2 2408.3 683C2406.9 676.5 2404.4 670.6 2400.8 665.3Z" fill="#1E1B24"/>
<g opacity="0.3">
<path d="M1314.5 552.2C1329.4 546.9 1345.3 546.5 1362.2 551.8C1573.4 618 1721.7 813.1 1786.7 914.1C1806.5 944.9 1848.4 952.2 1877.6 930C1877.6 930 1706.2 596.3 1416.3 505.4C1376.2 492.8 1341.5 512.1 1314.5 552.2Z" fill="white"/>
<path d="M1839.4 945.1C1835.7 945.1 1831.9 944.8 1828.2 944.1C1810.4 941 1794.6 930.5 1784.9 915.3C1716.1 808.3 1569.7 619.1 1361.6 553.9C1345.6 548.9 1330 549 1315.3 554.3C1314.4 554.6 1313.4 554.3 1312.8 553.6C1312.2 552.8 1312.2 551.8 1312.7 551C1342 507.6 1378 491.1 1417 503.3C1704.5 593.5 1877.9 925.7 1879.6 929C1880.1 929.9 1879.8 931.1 1879 931.8C1867.5 940.5 1853.5 945.1 1839.4 945.1ZM1338.4 545.8C1346.4 545.8 1354.6 547.1 1362.8 549.7C1572.2 615.4 1719.4 805.5 1788.5 912.9C1797.7 927.3 1812.1 936.8 1828.9 939.7C1844.9 942.5 1861.5 938.7 1874.7 929.3C1861.1 903.8 1690.8 593.7 1415.5 507.4C1380.2 496.3 1347.2 510.4 1319.9 548.1C1326 546.6 1332.2 545.8 1338.4 545.8Z" fill="#1E1B24"/>
</g>
<path d="M1484 1118.4C1505.7 1070.2 1573.1 1014.5 1629.8 973.8C1681 937.1 1690 864.6 1649.9 816C1579.3 730.4 1493.2 670.6 1434.9 636.2C1400.3 615.8 1356.1 636.9 1349.9 676.6C1340.4 738.1 1336.3 832.2 1367.5 939.9C1401.3 1056.4 1477.4 1116.8 1477.4 1116.8" fill="#FF6C6C"/>
<path d="M1484 1120.6C1483.7 1120.6 1483.4 1120.5 1483.1 1120.4C1482 1119.9 1481.5 1118.6 1482 1117.5C1504.2 1068.2 1574 1011.2 1628.6 972.1C1652.7 954.8 1668.1 929.1 1671.9 899.7C1675.7 870.4 1667.1 840.4 1648.2 817.6C1578.2 732.7 1492.9 673.2 1433.7 638.2C1417.9 628.9 1399.3 628 1382.7 635.9C1366.3 643.7 1354.8 659 1352 677C1342.7 737 1338.2 831.3 1369.5 939.3C1402.6 1053.7 1477.9 1114.5 1478.6 1115.1C1479.5 1115.9 1479.7 1117.2 1479 1118.2C1478.2 1119.1 1476.9 1119.3 1475.9 1118.6C1475.1 1118 1398.8 1056.4 1365.3 940.6C1333.8 831.8 1338.3 736.9 1347.7 676.4C1350.7 657 1363.1 640.4 1380.9 632C1398.6 623.6 1419.2 624.6 1436 634.5C1495.5 669.7 1581.2 729.5 1651.6 814.8C1671.2 838.6 1680.2 869.8 1676.2 900.3C1672.2 931 1656.2 957.8 1631.1 975.7C1576.9 1014.5 1507.8 1070.9 1486 1119.4C1485.6 1120.1 1484.8 1120.6 1484 1120.6Z" fill="#1E1B24"/>
<path d="M1532.4 979.3C1538.2 999.4 1545.3 1017.9 1553.1 1034.7C1577.5 1012.8 1604.8 991.9 1629.8 973.9C1681 937.2 1690 864.7 1649.9 816.1C1609.8 767.4 1564.6 727.1 1522.4 695.1C1518.6 701.3 1515.9 708.4 1514.7 716.2C1505.3 777.6 1501.2 871.6 1532.4 979.3Z" fill="#FF6C6C"/>
<path d="M1553.1 1036.9C1553 1036.9 1552.8 1036.9 1552.7 1036.9C1552 1036.8 1551.4 1036.3 1551.1 1035.7C1542.7 1017.6 1535.7 998.8 1530.3 980C1498.8 871.3 1503.3 776.3 1512.6 715.8C1513.8 707.9 1516.5 700.5 1520.6 693.9C1520.9 693.4 1521.5 693 1522.1 692.9C1522.7 692.8 1523.3 692.9 1523.8 693.3C1573.1 730.8 1616.1 771.6 1651.6 814.7C1671.2 838.5 1680.2 869.7 1676.2 900.3C1672.2 931 1656.2 957.7 1631.1 975.7C1601.7 996.8 1575.9 1017.2 1554.6 1036.4C1554.1 1036.7 1553.6 1036.9 1553.1 1036.9ZM1523.1 698.3C1520 703.9 1517.9 710 1516.9 716.4C1507.6 776.5 1503.2 870.7 1534.5 978.7C1539.6 996.4 1546.1 1013.9 1553.8 1031C1574.8 1012.3 1599.9 992.5 1628.5 972C1652.6 954.7 1668 929 1671.8 899.6C1675.6 870.3 1667 840.3 1648.2 817.4C1613.4 775.2 1571.3 735.1 1523.1 698.3Z" fill="#1E1B24"/>
<path d="M2713.9 1500.1C2658.3 1474.5 2609.2 1384.1 2595.1 1338.5C2587 1312.2 2567.7 1260.2 2552.9 1221C2801.4 995.6 2684.5 395.2 2506.5 466.1C2305.5 546.2 2173.6 744.5 2114.4 852C2030 836.1 1969.9 842.8 1969.9 842.8C1969.9 842.8 1907.9 840.5 1823.3 863.7C1756.3 761.1 1609.8 572.5 1402.8 507.6C1219.3 450 1148 1062.3 1416.2 1266.1C1404.5 1306 1389.7 1357.7 1383.7 1384C1373.1 1430.5 1330.8 1524.4 1277.3 1554.1C1245.7 1571.6 1245.2 1598.5 1268.1 1617.8C1282.8 1630.2 1307.2 1639.5 1339.2 1641.1C1341.7 1641.3 1344.4 1641.3 1347 1641.4C1347 1641.4 1347 1641.4 1346.9 1641.5C1345 1642.8 1329.3 1653.8 1289 1682.6C1249.6 1710.9 1283.5 1745.2 1352.8 1778.3C1422.1 1811.4 1512.8 1891 1531.3 1902.6C1542.1 1909.4 1600 1952.4 1707.8 1984.7C1784.4 2007.7 1886.3 2025.2 2014.3 2020.4C2322.2 2008.8 2469.6 1879.7 2487.1 1866.7C2504.6 1853.8 2589.1 1767.5 2655.8 1729.4C2722.5 1691.2 2753.7 1654.4 2712.2 1629.2C2667 1601.7 2651.2 1592.5 2651.2 1592.5C2653.8 1592.3 2656.3 1592 2658.7 1591.7C2690.6 1587.7 2714.4 1576.6 2728.1 1563.1C2749.3 1541.9 2746.7 1515.2 2713.9 1500.1Z" fill="#F99B28"/>
<g opacity="0.4">
<path d="M2508.6 522.2C2338.9 589.8 2232.8 758.6 2168.2 874.3C2149.5 907.7 2112.9 927 2074.8 923.1C2017.1 917.2 1972.7 918.7 1972.7 918.7C1972.7 918.7 1927.1 920.5 1868.7 931.2C1830.9 938.1 1792.5 922.1 1771.3 890C1698.3 779.4 1579.6 618.5 1404.9 563.7C1307.5 533.1 1241.7 691.3 1241.5 876.9C1225.4 666.5 1294.6 468.3 1402.6 502.2C1609.6 567.1 1756.1 755.7 1823.1 858.3C1907.7 835.1 1969.7 837.4 1969.7 837.4C1969.7 837.4 2029.8 830.7 2114.2 846.6C2173.5 739 2305.3 540.7 2506.3 460.6C2611.5 418.7 2695.3 611.1 2695.1 822.1C2680.9 637.2 2603.5 484.5 2508.6 522.2Z" fill="white"/>
</g>
<path d="M1342.5 1641.2C1343.9 1641.3 1345.4 1641.3 1346.8 1641.3C1346.8 1641.3 1346.8 1641.3 1346.7 1641.4C1346.4 1641.6 1345.9 1641.9 1345.2 1642.5C1344.3 1642.1 1343.4 1641.6 1342.5 1641.2Z" fill="#982E20"/>
<path d="M1345.2 1644.7C1344.9 1644.7 1344.6 1644.6 1344.3 1644.5C1343.7 1644.2 1343.2 1644 1342.6 1643.7L1341.6 1643.2C1340.7 1642.8 1340.2 1641.7 1340.4 1640.7C1340.7 1639.7 1341.6 1639.1 1342.6 1639C1343.8 1639.1 1345.1 1639.1 1346.4 1639.1C1347.3 1639.1 1348.3 1639.7 1348.7 1640.5C1349 1641.3 1349.1 1642.3 1348.5 1642.9C1348.4 1643 1348.2 1643.2 1348.1 1643.2C1348 1643.3 1347.9 1643.3 1347.8 1643.4C1347.7 1643.5 1347.5 1643.6 1347.5 1643.6L1346.5 1644.3C1346.1 1644.5 1345.6 1644.7 1345.2 1644.7Z" fill="#1E1B24"/>
<path d="M2655.6 1729.2C2588.9 1767.4 2504.4 1853.6 2486.9 1866.5C2469.4 1879.5 2322 2008.6 2014.1 2020.2C1886.1 2025 1784.2 2007.5 1707.6 1984.5C1599.9 1952.3 1541.9 1909.2 1531.1 1902.4C1512.7 1890.8 1422 1811.2 1352.6 1778.1C1283.2 1745 1249.3 1710.7 1288.8 1682.4C1329.1 1653.6 1344.8 1642.6 1346.7 1641.3C1346.8 1641.2 1346.8 1641.2 1346.8 1641.2C1344.2 1641.2 1341.5 1641.1 1339 1640.9C1349 1637.1 1360.2 1633.5 1372.5 1630.1C1472.4 1602.5 1606.8 1737 1782.7 1660.6C1917.7 1602 1848.5 1282.9 1881.6 1197.9C1881.9 1197 1882.3 1196.2 1882.6 1195.3C1917.9 1107.5 2041 1102.8 2082.8 1187.8C2083.2 1188.6 2083.6 1189.4 2084 1190.3C2123.4 1272.5 2078.4 1595.9 2217.3 1644.2C2398.4 1707.2 2522.3 1563 2624 1583C2636.6 1585.5 2648 1588.3 2658.3 1591.3C2655.9 1591.6 2653.3 1591.9 2650.8 1592.1C2650.8 1592.1 2666.5 1601.3 2711.8 1628.8C2753.5 1654.2 2722.3 1691 2655.6 1729.2Z" fill="white"/>
<path d="M1823.2 881.4C1815.5 881.4 1808.4 876.3 1806.2 868.4C1803.6 859 1809.1 849.3 1818.5 846.8C1899 824.7 1959.3 825 1969.1 825.2C1978.7 824.3 2037.3 819.6 2117.6 834.8C2127.2 836.6 2133.4 845.8 2131.6 855.4C2129.8 865 2120.6 871.2 2111 869.4C2030.6 854.1 1972.3 860.3 1971.7 860.3C1970.9 860.4 1970 860.4 1969.1 860.4C1968.5 860.4 1908.4 858.6 1827.8 880.7C1826.3 881.1 1824.8 881.4 1823.2 881.4Z" fill="#1E1B24"/>
<path d="M1815 2015.6C1789.3 2014.3 1763.6 2010.8 1738.3 2005.4C1713.1 1999.7 1688.2 1992.8 1663.8 1984.1C1615.1 1966.8 1568.4 1944.9 1523.7 1918.1C1521.2 1916.6 1517.1 1913.8 1514.7 1912.1C1512 1910.1 1509.3 1908.1 1506.8 1906.2L1491.6 1894.5L1461.6 1871.4C1441.6 1856.2 1421.4 1841.5 1400.7 1827.8C1390.4 1820.9 1379.9 1814.5 1369.4 1808.3C1364.1 1805.5 1358.8 1802.3 1353.5 1799.7L1345.5 1795.7L1336.7 1791.4C1324.9 1785.6 1313.2 1779.3 1301.7 1772C1290.2 1764.5 1278.8 1756.4 1268.2 1744.6C1263 1738.6 1257.8 1731.3 1254.7 1721.4C1253.1 1716.5 1252.5 1710.7 1253 1704.9C1253.5 1699.1 1255.3 1693.5 1257.7 1688.8C1262.7 1679.2 1269.4 1673.3 1275.8 1668.3C1277.6 1666.9 1278.7 1666.2 1280 1665.2L1283.9 1662.4L1291.6 1656.9L1322.6 1634.8L1326.5 1632L1327 1631.7L1327.2 1631.5L1326.3 1632.1C1324.9 1633.3 1323.6 1634.8 1322.6 1636.5C1320.6 1640 1320.2 1643.8 1320.7 1647C1321.3 1650.3 1322.9 1653.5 1325.9 1656.2C1327.4 1657.5 1329.3 1658.6 1331.3 1659.3C1332.3 1659.6 1333.3 1659.8 1334.2 1660C1334.6 1660.1 1335.4 1660.1 1335.4 1660.1H1335.1L1329.9 1659.7C1322.9 1659.1 1315.9 1658.1 1308.9 1656.6C1294.9 1653.7 1280.9 1649 1267.5 1641.1C1260.8 1637.1 1254.3 1632.2 1248.5 1625.9C1242.7 1619.6 1237.4 1611.6 1234.6 1601.9C1231.8 1592.2 1232.1 1580.7 1235.9 1571.2C1239.6 1561.6 1245.6 1554.1 1252 1548.5L1256.9 1544.5L1261.9 1541L1267 1537.9C1268 1537.3 1268.3 1537.1 1268.9 1536.7L1270.5 1535.7C1272.6 1534.2 1274.9 1533.1 1277 1531.4L1283.3 1526.4C1299.9 1511.8 1314.2 1492.5 1326.4 1471.8C1338.8 1451.2 1349.2 1429 1357.5 1406.5L1360.5 1398L1363.1 1389.5C1363.9 1386.7 1364.6 1383.9 1365.3 1381.1L1367.6 1371.7C1370.8 1359.1 1374.2 1346.8 1377.7 1334.5C1384.6 1309.9 1392.1 1285.6 1399.5 1261.3C1402.2 1252.3 1411.8 1247.2 1420.8 1250C1429.7 1252.7 1434.7 1262 1432.2 1270.9C1425.3 1295.2 1418.7 1319.7 1412.2 1344C1409 1356.1 1405.7 1368.3 1402.9 1380.3L1400.8 1389.4C1400 1392.7 1399.2 1396.2 1398.3 1399.4L1395.4 1409.1L1392.2 1418.6C1383.3 1443.7 1372.5 1467.8 1359.1 1490.9C1345.7 1513.9 1329.7 1536 1308.2 1555.1L1299.7 1561.9C1296.9 1564.2 1293.5 1566.1 1290.4 1568.1L1285.9 1570.9L1282.8 1572.7L1280 1574.7L1277.5 1576.7C1274.4 1579.4 1272.5 1582.3 1271.7 1584.5C1270.8 1586.8 1270.9 1588.6 1271.4 1591.1C1272.2 1593.6 1273.8 1596.6 1276.6 1599.6C1279.4 1602.6 1283.1 1605.4 1287.3 1607.9C1295.8 1612.9 1306.1 1616.5 1316.9 1618.7C1322.3 1619.8 1327.9 1620.6 1333.5 1621.1L1337.7 1621.4H1338L1339.8 1621.6C1341.1 1621.8 1342.5 1622.1 1343.9 1622.6C1346.6 1623.5 1349.2 1625 1351.4 1626.9C1355.7 1630.6 1358 1635.4 1358.9 1640.2C1359.8 1645 1359 1650.5 1356.2 1655.3C1354.8 1657.7 1353 1659.8 1351 1661.5L1349.7 1662.5L1349.5 1662.7L1349 1663L1345.1 1665.8L1314.2 1687.8L1299.1 1698.5C1295.5 1701.2 1292.6 1704.1 1291.9 1705.9C1291.4 1706.8 1291.2 1707.4 1291.2 1707.9C1291.2 1708.5 1291.1 1709.1 1291.5 1710.2C1292.1 1712.4 1294.1 1715.9 1297.2 1719.5C1303.4 1726.7 1312.6 1733.8 1322.4 1740.1C1332.2 1746.5 1342.8 1752.3 1353.7 1757.8L1362 1761.9L1371 1766.5C1377 1769.5 1382.6 1773 1388.4 1776.2C1399.7 1783 1410.7 1790 1421.4 1797.3C1442.8 1811.9 1463.4 1827.4 1483.5 1843.1L1513.4 1866.9L1528.1 1878.6C1530.6 1880.6 1533 1882.4 1535.3 1884.2C1538 1886.2 1539.1 1887 1542 1888.9C1562.7 1902.2 1584.5 1914.3 1606.6 1925.8C1628.6 1937.4 1651.3 1947.8 1674.1 1957.8C1697 1967.5 1720.4 1976.2 1744.1 1983.8C1767.8 1991.5 1792.1 1997.2 1816.6 2002.4H1816.8C1820.3 2003.1 1822.6 2006.6 1821.8 2010.1C1821.1 2013.6 1818.2 2015.7 1815 2015.6Z" fill="#1E1B24"/>
<path d="M2568.9 1215C2577.7 1237.7 2586.5 1260.3 2594.9 1283.2C2599.1 1294.7 2603.2 1306.1 2607.2 1317.8L2613 1335.3C2614.7 1340.5 2616.8 1345.8 2618.9 1351C2627.8 1372.1 2638.9 1392.8 2651.5 1412C2664.1 1431.3 2678.4 1449.5 2694.5 1464.2C2696.5 1466.2 2698.6 1467.6 2700.7 1469.4C2702.8 1471.1 2704.8 1472.9 2707 1474.2L2713.4 1478.6L2720 1482.1L2721.6 1483L2724.1 1484.2C2725.8 1485.1 2727.5 1485.8 2729.1 1486.9C2732.4 1488.8 2735.8 1491 2739 1493.5C2745.4 1498.6 2751.6 1505.3 2755.8 1514.1C2760.1 1522.8 2761.4 1533.6 2759.7 1543.1C2758 1552.7 2753.7 1560.7 2748.8 1567.4C2738.8 1580.7 2726.2 1588.9 2713.6 1595.2C2700.8 1601.3 2687.7 1605.4 2674.5 1607.9C2671.2 1608.6 2667.9 1609.1 2664.6 1609.6L2664 1609.7H2663.7C2663.6 1609.7 2663.3 1609.8 2664 1609.7C2665.7 1609.4 2667.6 1608.8 2669.3 1607.8C2672.8 1605.8 2675.1 1602.6 2676.1 1599.6C2677.2 1596.6 2677.3 1593.4 2676.3 1590C2675.4 1586.7 2672.7 1583.2 2669.9 1581.5L2684.9 1590.5L2716.1 1609.5L2720 1611.9L2722 1613.1L2724.4 1614.7C2727.6 1616.8 2730.9 1619.3 2734 1622.2C2740.2 1627.9 2746.7 1636.7 2748.7 1647.7C2750.9 1658.7 2748 1669.1 2744.3 1676.7C2740.5 1684.4 2735.9 1690.5 2731.1 1695.9C2721.5 1706.6 2711.1 1714.7 2700.6 1722.3C2690.1 1729.8 2679.3 1736.5 2668.5 1742.8L2664.5 1745.1L2660.8 1747.3L2653.5 1751.7C2648.7 1754.8 2643.8 1758 2639 1761.3C2600.6 1788.1 2564.6 1820.1 2528.9 1852.5L2515.4 1864.8C2510.8 1868.9 2506.4 1873 2501 1877.4C2499.6 1878.5 2498 1879.8 2496.8 1880.7L2493.1 1883.4L2485.4 1888.8C2480.2 1892.4 2475.1 1895.8 2469.8 1899.2C2448.9 1912.7 2427.3 1924.7 2405.2 1935.9C2361 1957.8 2314.8 1975.6 2267.4 1988.2C2262.7 1989.5 2257.8 1986.6 2256.5 1981.9C2255.4 1977.6 2257.6 1973.2 2261.5 1971.5L2261.6 1971.4C2283.7 1961.8 2305.7 1952.3 2327.2 1941.9C2348.7 1931.4 2370 1920.5 2390.6 1908.8C2411.4 1897.2 2431.6 1884.6 2451.2 1871.5C2456.1 1868.2 2460.9 1864.8 2465.6 1861.4L2472.6 1856.2L2476.2 1853.5L2479.1 1851.1C2483.1 1847.8 2487.6 1843.6 2492 1839.6L2505.3 1827.3C2541 1794.3 2577.4 1761.2 2618.2 1732.1C2623.4 1728.5 2628.6 1725 2633.9 1721.5L2642.1 1716.5L2646.2 1714L2650 1711.8C2660.1 1705.9 2669.8 1699.6 2679 1693C2688.1 1686.3 2696.7 1679.2 2703.3 1671.8C2706.5 1668.1 2709.2 1664.3 2710.7 1661.2C2712.2 1657.9 2712.3 1655.9 2712 1654.9C2711.8 1653.9 2711 1652.1 2708.4 1649.7C2707.1 1648.5 2705.6 1647.3 2703.7 1646.1L2702.3 1645.2L2700.4 1644L2696.5 1641.7L2665.4 1623L2649.3 1613.2C2645.2 1610.7 2641.6 1605.9 2640.2 1601.1C2638.8 1596.3 2639 1591.5 2640.5 1587C2642.1 1582.6 2645.4 1578.1 2650.2 1575.4C2652.6 1574 2655.1 1573.1 2657.6 1572.7L2659.2 1572.4C2661.9 1571.9 2664.6 1571.6 2667.2 1571C2677.8 1569 2688 1565.8 2697.1 1561.4C2706.1 1557 2714.1 1551.2 2718.7 1545C2721 1541.9 2722.4 1538.9 2722.8 1536.5C2723.1 1534.1 2723 1532.2 2721.9 1530C2720.9 1527.8 2718.8 1525.2 2715.8 1522.8C2714.2 1521.6 2712.5 1520.4 2710.6 1519.3C2709.7 1518.7 2708.6 1518.2 2707.6 1517.7L2703.6 1515.6L2694.1 1510.5L2685.5 1504.7C2682.5 1502.8 2680 1500.6 2677.4 1498.5C2674.8 1496.3 2672 1494.3 2669.7 1492C2650.1 1473.9 2634.2 1453.6 2620.6 1432.2C2606.9 1410.8 2595.2 1388.4 2585.5 1364.7C2583.2 1358.7 2580.9 1352.7 2578.9 1346.3L2573.4 1329.2C2569.7 1317.9 2565.7 1306.5 2561.7 1295.2C2553.6 1272.5 2545.5 1249.7 2537.2 1227C2533.9 1218.2 2538.5 1208.4 2547.3 1205.1C2555.8 1202 2565.5 1206.4 2568.9 1215Z" fill="#1E1B24"/>
<path d="M2574.1 894.5C2549.2 1013.2 2477.8 1079.2 2477.8 1079.2L2471.3 1081.4C2457.2 1055.5 2428.8 1028.4 2396.1 1003.1C2370.1 983.1 2341.4 964.3 2315 948.2C2261.1 915.4 2246.8 843.9 2283.1 792.3C2319.4 740.8 2361.4 697.2 2401.1 662C2431.2 635.3 2460.1 613.5 2484 596.8C2517 573.8 2562.6 591.5 2571.7 630.6C2586 691.3 2597.2 784.8 2574.1 894.5Z" fill="#FF6C6C"/>
<g opacity="0.3">
<path d="M2412.7 946.2C2408.4 966.7 2402.7 985.6 2396.2 1003C2370.2 983 2341.5 964.2 2315.1 948.1C2261.2 915.3 2246.9 843.8 2283.2 792.2C2319.5 740.7 2361.5 697.1 2401.2 661.9C2405.5 667.8 2408.7 674.6 2410.5 682.3C2424.6 743 2435.7 836.5 2412.7 946.2Z" fill="#1E1B24"/>
</g>
<path d="M2463.4 1085.6C2456.2 1074.3 2446.9 1064 2437 1054.3C2427 1044.7 2416.4 1035.4 2405.3 1026.8C2394.1 1018.2 2382.7 1009.8 2371 1001.8C2359.2 993.9 2347.2 986.1 2335.2 978.6C2329.1 974.9 2323 971.1 2316.9 967.5L2307.7 962.1L2303.1 959.4C2301.5 958.5 2300.1 957.7 2298.2 956.5C2283.6 947.6 2271 935 2262.4 920.1C2253.9 905.2 2248.5 888.2 2248.1 870.9C2247.6 853.7 2251.2 836.2 2258.9 820.7L2262 815L2263.6 812.2L2265.1 809.9L2271.1 800.5L2283.2 781.8L2296.3 763.8L2302.9 754.8L2309.9 746.1L2323.9 728.8L2338.8 712.3C2343.7 706.7 2348.8 701.4 2354.1 696.2C2359.3 691 2364.3 685.5 2369.8 680.5C2391.2 660.1 2414 641.2 2437.9 624C2461.9 606.8 2486.7 591.1 2513.7 578.6C2516.2 577.4 2519.2 578.5 2520.3 581C2521.3 583.2 2520.6 585.8 2518.7 587.2L2518.5 587.4C2495.3 603.9 2472.9 622.2 2451.6 641.2C2440.8 650.6 2430.6 660.6 2420.3 670.5L2405.2 685.6L2390.6 701.2C2371.4 722.1 2352.9 743.7 2336.1 766.5L2329.7 775L2323.6 783.7L2311.4 801.1L2300 819L2294.3 827.9L2292.9 830.1L2291.8 832.1L2289.7 836C2279.3 857 2280.2 883 2291.7 903.6C2297.4 913.9 2305.8 922.5 2315.7 929C2316.8 929.8 2318.5 930.8 2320 931.8L2324.7 934.7L2334 940.6C2340.2 944.5 2346.3 948.7 2352.4 952.7C2376.8 969.2 2400.5 987 2422.6 1007C2433.6 1017 2444.3 1027.6 2454 1039.2C2463.8 1050.7 2472.8 1063.2 2479.6 1077.3C2481.8 1081.8 2479.8 1087.2 2475.3 1089.4C2471.1 1091.4 2466.2 1089.9 2463.8 1086.1L2463.4 1085.6Z" fill="#1E1B24"/>
<path d="M1367.5 939.9C1401.2 1056.4 1477.4 1116.8 1477.4 1116.8L1484 1118.5C1496.1 1091.6 1522.4 1062.5 1553.1 1034.8C1577.5 1012.9 1604.8 992 1629.8 974C1681 937.3 1690 864.8 1649.9 816.2C1609.8 767.5 1564.6 727.2 1522.4 695.2C1490.4 670.9 1460 651.3 1434.8 636.4C1400.2 616 1356 637 1349.9 676.7C1340.4 738.2 1336.3 832.2 1367.5 939.9Z" fill="#FF6C6C"/>
<g opacity="0.3">
<path d="M1532.4 979.3C1538.2 999.4 1545.3 1017.9 1553.1 1034.7C1577.5 1012.8 1604.8 991.9 1629.8 973.9C1681 937.2 1690 864.7 1649.9 816.1C1609.8 767.4 1564.6 727.1 1522.4 695.1C1518.6 701.3 1515.9 708.4 1514.7 716.2C1505.3 777.6 1501.2 871.6 1532.4 979.3Z" fill="#1E1B24"/>
</g>
<path d="M1475.8 1114.7C1481.5 1100.1 1489.5 1087 1498.4 1074.7C1507.3 1062.4 1517.1 1051.1 1527.3 1040.3C1547.9 1018.8 1570.1 999.2 1593.3 980.9C1599.1 976.4 1604.9 971.8 1610.8 967.4L1619.6 960.8L1624 957.5C1625.5 956.4 1627.1 955.3 1628.1 954.4C1637.5 947.2 1645.2 937.9 1650.2 927.3C1660.1 905.9 1659.1 880 1647.1 859.8L1644.7 856.1L1643.5 854.2L1641.9 852.1L1635.5 843.6L1622.8 826.7L1609.3 810.3L1602.6 802.1L1595.6 794.2C1577.1 772.7 1557.1 752.6 1536.3 733.1L1520.6 718.7L1504.4 704.8C1493.4 695.7 1482.5 686.5 1471 678C1448.4 660.6 1424.7 644.1 1400.3 629.4L1400.1 629.3C1397.7 627.9 1397 624.8 1398.4 622.4C1399.7 620.3 1402.2 619.5 1404.4 620.3C1432.3 630.7 1458.2 644.6 1483.4 659.9C1508.5 675.3 1532.6 692.4 1555.5 711.2C1561.3 715.8 1566.7 720.9 1572.3 725.7C1577.9 730.5 1583.4 735.4 1588.7 740.6L1604.8 755.9L1620.1 772.1L1627.7 780.2L1634.9 788.7L1649.3 805.7L1662.8 823.4L1669.5 832.3L1671.2 834.5L1673 837.2L1676.5 842.6C1685.4 857.4 1690.2 874.6 1691.1 891.9C1691.9 909.2 1687.9 926.5 1680.5 942C1673 957.5 1661.4 971 1647.5 981C1645.7 982.4 1644.3 983.3 1642.8 984.3L1638.4 987.3L1629.6 993.4C1623.7 997.5 1618 1001.7 1612.2 1005.8C1600.7 1014.3 1589.4 1022.9 1578.2 1031.7C1567.1 1040.5 1556.4 1049.8 1545.8 1059.2C1535.3 1068.7 1525.5 1078.7 1516.2 1089C1507.1 1099.5 1498.6 1110.4 1492.3 1122.2L1492.2 1122.3C1489.9 1126.7 1484.4 1128.4 1480 1126C1475.8 1123.8 1474.1 1118.9 1475.8 1114.7Z" fill="#1E1B24"/>
<path d="M2092.4 1701.4C2096 1797 2058.6 1876 2008.8 1877.9C1959 1879.8 1915.8 1803.8 1912.2 1708.2" fill="#FF6C6C"/>
<path d="M2007 1880.2C1956.9 1880.2 1913.6 1803.8 1910 1708.3C1910 1707.1 1910.9 1706.1 1912.1 1706C1913.3 1706 1914.3 1706.9 1914.4 1708.1C1917.9 1802.3 1960.2 1877.6 2008.7 1875.7C2057.2 1873.9 2093.7 1795.7 2090.2 1701.5C2090.2 1700.3 2091.1 1699.3 2092.3 1699.2C2093.5 1699.2 2094.5 1700.1 2094.6 1701.3C2098.2 1798 2059.8 1878.2 2008.9 1880.1C2008.2 1880.2 2007.6 1880.2 2007 1880.2Z" fill="#1E1B24"/>
<path d="M2092.5 1723.1C2091.7 1754.5 2086.3 1783.5 2077.7 1807.7C2062.8 1849.4 2037.9 1876.9 2008.8 1878C1979.7 1879.1 1952.8 1853.6 1934.8 1813C1924.3 1789.6 1916.9 1761.1 1913.7 1729.9L2092.5 1723.1Z" fill="#ED2E7A"/>
<path d="M2007 1880.5C1978.4 1880.5 1951.4 1856.4 1932.6 1813.9C1921.8 1789.7 1914.4 1760.7 1911.3 1730L1911 1727.3L2095.1 1720.4L2095 1723.1C2094.2 1753.9 2089 1783.4 2080 1808.5C2064.1 1853.1 2038.1 1879.3 2008.9 1880.4C2008.2 1880.5 2007.6 1880.5 2007 1880.5ZM1916.5 1732.2C1919.7 1761.4 1926.8 1788.9 1937.1 1811.9C1955.4 1853.3 1981.5 1876.6 2008.7 1875.5C2035.8 1874.5 2060.1 1849.5 2075.3 1806.9C2083.9 1783 2088.9 1755 2089.9 1725.7L1916.5 1732.2Z" fill="#1E1B24"/>
<path d="M1998.9 1814.3L1987.8 1715.3C1986.9 1707.1 1992.8 1699.7 2001 1698.8C2009.2 1697.9 2016.6 1703.8 2017.5 1712C2017.6 1712.7 2017.6 1713.5 2017.6 1714.2L2013.9 1813.8C2013.7 1818 2010.2 1821.2 2006.1 1821.1C2002.3 1820.8 1999.3 1817.9 1998.9 1814.3Z" fill="#1E1B24"/>
<path d="M2006.4 1892.9C1949.8 1892.9 1901.9 1831.4 1899 1754C1898.7 1745.8 1905.1 1738.8 1913.4 1738.5C1921.6 1738.1 1928.6 1744.6 1928.9 1752.9C1931.2 1815.2 1967 1864.7 2008.3 1863.1C2027.4 1862.4 2045.3 1850.6 2058.6 1830C2073 1807.8 2080.4 1778.4 2079.2 1747.3C2078.9 1739.1 2085.3 1732.1 2093.6 1731.8C2101.8 1731.5 2108.8 1737.9 2109.1 1746.2C2110.5 1783.4 2101.5 1819 2083.7 1846.3C2064.9 1875.3 2038.5 1891.8 2009.4 1892.9C2008.4 1892.9 2007.4 1892.9 2006.4 1892.9Z" fill="#1E1B24"/>
<g opacity="0.3">
<path d="M2172.1 1688.2C2168.9 1739.5 2137.2 1802.7 2076 1798.9C2022.6 1795.5 2004.3 1757 2004.3 1757H2003.2C2003.2 1757 1987.7 1796.1 1934.8 1804.2C1879 1812.8 1837.9 1753.4 1830.9 1702.5" fill="#1E1B24"/>
</g>
<path d="M2155.7 1680.8C2152.5 1732.1 2121 1758.5 2074.3 1755C2020.9 1750.9 2005.7 1709.4 2001.8 1693.9H2000.7C1998 1709.7 1985.9 1752.2 1933 1760.3C1886.7 1767.4 1853.3 1743.4 1846.2 1692.5" fill="white"/>
<path d="M1917.8 1763.7C1901 1763.7 1886.1 1759.2 1874.3 1750.3C1858.2 1738.3 1847.8 1718.4 1844.2 1692.7C1844 1691.5 1844.9 1690.4 1846.1 1690.2C1847.3 1690 1848.4 1690.9 1848.6 1692.1C1852 1716.5 1861.8 1735.4 1876.9 1746.7C1891.4 1757.5 1910.7 1761.4 1932.8 1758C1983.6 1750.2 1995.8 1710.3 1998.6 1693.4C1998.8 1692.4 1999.6 1691.6 2000.7 1691.6H2001.8C2002.8 1691.6 2003.8 1692.3 2004 1693.3C2008.1 1709.9 2023.2 1748.8 2074.5 1752.7C2096.8 1754.4 2115.8 1749.1 2129.4 1737.2C2143.7 1724.8 2152 1705.2 2153.6 1680.6C2153.7 1679.4 2154.7 1678.5 2155.9 1678.5C2157.1 1678.6 2158 1679.6 2158 1680.8C2156.4 1706.6 2147.5 1727.2 2132.3 1740.5C2117.8 1753.1 2097.7 1758.9 2074.2 1757.1C2026 1753.4 2008.1 1720.4 2001.6 1700.8C1996.7 1720.8 1981.3 1755 1933.5 1762.4C1928 1763.3 1922.8 1763.7 1917.8 1763.7Z" fill="#1E1B24"/>
<g opacity="0.3">
<path d="M2155.7 1680.8C2152.5 1732.1 2121 1758.6 2074.3 1754.9C2020.9 1750.8 2005.7 1709.4 2001.8 1693.8H2000.7C1998 1709.6 1986 1752.1 1933 1760.1C1886.7 1767.2 1853.3 1743.2 1846.3 1692.3L1860 1691.8C1875.4 1713.5 1900.5 1722.6 1931.4 1717.8C1958.2 1713.7 1974.5 1700.8 1984.4 1687.1L2017.5 1685.9C2028.4 1698.9 2045.6 1710.5 2072.6 1712.5C2103.8 1714.9 2128.2 1703.9 2141.9 1681.2L2155.7 1680.8Z" fill="#1E1B24"/>
</g>
<path d="M1917.7 1776.4C1898.1 1776.4 1880.7 1771 1866.6 1760.5C1847.7 1746.4 1835.6 1723.6 1831.5 1694.5C1830.4 1686.3 1836.1 1678.8 1844.2 1677.7C1852.4 1676.6 1859.9 1682.3 1861 1690.4C1863.9 1711.4 1872 1727.3 1884.3 1736.6C1896 1745.3 1912 1748.4 1930.7 1745.5C1971.8 1739.2 1982.9 1708.9 1985.9 1691.4C1987.1 1684.4 1993 1679.3 2000 1679H2001.1C2008.2 1678.8 2014.5 1683.4 2016.2 1690.3C2020.5 1707.5 2033.9 1736.9 2075.3 1740.1C2094.1 1741.6 2109.9 1737.3 2120.9 1727.7C2132.5 1717.6 2139.4 1701 2140.7 1679.9C2141.2 1671.7 2148.4 1665.5 2156.5 1665.9C2164.7 1666.4 2171 1673.5 2170.5 1681.7C2168.7 1711 2158.3 1734.7 2140.5 1750.2C2123.4 1765.1 2100 1771.9 2073.1 1769.8C2036.6 1767 2015.1 1749 2002.7 1731.2C1991.6 1749.9 1971.6 1769.5 1935.4 1775C1929.3 1776 1923.4 1776.4 1917.7 1776.4Z" fill="#1E1B24"/>
<path d="M2552.9 1238.7C2548.1 1238.7 2543.3 1236.8 2539.9 1232.9C2533.4 1225.7 2533.9 1214.6 2541.1 1208C2713.8 1051.4 2706.8 688.7 2610.8 534.9C2590 501.5 2556.1 465.3 2513 482.5C2318 560.2 2189.2 752.7 2129.8 860.6C2125.1 869.1 2114.4 872.2 2105.9 867.5C2097.4 862.8 2094.3 852.1 2099 843.6C2160.7 731.6 2294.9 531.5 2500.1 449.8C2551.4 429.4 2601.3 453 2640.8 516.3C2690.9 596.6 2718.8 734.7 2711.9 868.2C2703.8 1025.6 2651.6 1155.5 2564.8 1234.2C2561.4 1237.2 2557.2 1238.7 2552.9 1238.7Z" fill="#1E1B24"/>
<path d="M1416.1 1283.8C1412.4 1283.8 1408.6 1282.6 1405.5 1280.2C1312.1 1209.2 1249.3 1083.8 1228.7 927.1C1211.3 794.4 1228.3 653.8 1272 569.1C1306.7 502 1355 474.2 1408.1 490.8C1619.2 557 1768.1 746.8 1838 854.1C1843.3 862.2 1841 873.2 1832.9 878.5C1824.8 883.8 1813.8 881.5 1808.5 873.4C1741.1 770.1 1598.1 587.4 1397.5 524.5C1352.8 510.5 1321.6 549.9 1303.3 585.4C1228.6 729.9 1229.3 1102.2 1426.8 1252.3C1434.5 1258.2 1436 1269.2 1430.2 1277C1426.6 1281.4 1421.4 1283.8 1416.1 1283.8Z" fill="#1E1B24"/>
<g opacity="0.3">
<path d="M2655.6 1729.3C2588.9 1767.5 2504.4 1853.7 2486.9 1866.6C2469.4 1879.6 2322 2008.7 2014.1 2020.3C1886.1 2025.1 1784.2 2007.6 1707.6 1984.6C1599.9 1952.4 1541.9 1909.4 1531.1 1902.6C1512.7 1891 1422 1811.4 1352.6 1778.3C1283.2 1745.2 1249.4 1710.8 1288.8 1682.5C1295 1678 1300.7 1674 1305.7 1670.5C1456.9 1779.5 1719 1931.6 2010.3 1920.6C2301.6 1909.6 2551.6 1738.3 2694.2 1618.2C2699.5 1621.5 2705.4 1625 2712 1629C2753.4 1654.2 2722.3 1691 2655.6 1729.3Z" fill="#1E1B24"/>
</g>
<path d="M2000.3 1683.6C1992.3 1683.6 1985.7 1677.3 1985.4 1669.2L1983.4 1616.9C1983.1 1608.7 1989.5 1601.7 1997.8 1601.4C2006 1601.1 2013 1607.5 2013.3 1615.8L2015.3 1668.1C2015.6 1676.3 2009.2 1683.3 2000.9 1683.6C2000.7 1683.6 2000.5 1683.6 2000.3 1683.6Z" fill="#1E1B24"/>
<path d="M2092.7 1598.7C2093.9 1629.6 2051.3 1672.7 1996.8 1674.7C1942.4 1676.7 1896.7 1637 1895.5 1606.1C1894.3 1575.2 1938.4 1571 1992.8 1568.9C2047.3 1566.9 2091.5 1567.8 2092.7 1598.7Z" fill="#1E1B24"/>
<path d="M2036.4 1592C2036.7 1598.8 2017.8 1608.6 1994.2 1609.5C1970.6 1610.4 1951.1 1602 1950.8 1595.3C1950.5 1588.5 1969.7 1587.2 1993.3 1586.3C2016.9 1585.4 2036.2 1585.2 2036.4 1592Z" fill="white"/>
<path d="M1990.7 1611.5C1980.8 1611.5 1971.1 1610 1963.1 1607.1C1954.2 1603.9 1949 1599.6 1948.9 1595.3C1948.7 1589.6 1956.8 1587.6 1962.9 1586.6C1970.3 1585.4 1980.4 1584.8 1993.4 1584.3C2006.3 1583.8 2016.5 1583.6 2024 1584.3C2030.2 1584.9 2038.4 1586.2 2038.6 1592C2038.9 1601.2 2017.5 1610.7 1994.5 1611.5C1993.1 1611.5 1991.9 1611.5 1990.7 1611.5ZM2011.8 1587.8C2006.5 1587.8 2000.4 1588 1993.5 1588.2C1980.7 1588.7 1970.8 1589.2 1963.5 1590.4C1953.8 1592 1952.8 1594.2 1952.9 1595C1953 1597 1956.6 1600.4 1964.5 1603.2C1973 1606.3 1983.6 1607.7 1994.2 1607.3C2017.8 1606.4 2034.6 1596.6 2034.5 1591.9C2034.5 1591 2033.3 1589 2023.6 1588.1C2020.2 1587.9 2016.3 1587.8 2011.8 1587.8Z" fill="#1E1B24"/>
<path d="M1804.67 1471.44C1810.87 1408.34 1779.84 1353.65 1735.38 1349.29C1690.91 1344.92 1649.84 1392.53 1643.65 1455.63C1637.45 1518.73 1668.48 1573.42 1712.94 1577.78C1757.41 1582.15 1798.48 1534.54 1804.67 1471.44Z" fill="#1E1B24"/>
<path d="M1770.74 1449.97C1772.82 1428.81 1763.63 1410.59 1750.22 1409.27C1736.81 1407.96 1724.25 1424.05 1722.18 1445.21C1720.1 1466.37 1729.29 1484.59 1742.7 1485.91C1756.11 1487.22 1768.67 1471.14 1770.74 1449.97Z" fill="white"/>
<path d="M1744.3 1488.5C1743.7 1488.5 1743.1 1488.5 1742.5 1488.4C1735.1 1487.7 1728.7 1482.6 1724.4 1474.1C1720.3 1466 1718.6 1455.6 1719.7 1444.9C1720.7 1434.2 1724.4 1424.3 1730 1417.2C1735.9 1409.7 1743.1 1406 1750.5 1406.7C1757.9 1407.4 1764.3 1412.5 1768.6 1421C1772.7 1429.1 1774.4 1439.5 1773.3 1450.2C1772.3 1460.9 1768.6 1470.8 1763 1477.9C1757.7 1484.8 1751.1 1488.5 1744.3 1488.5ZM1748.8 1411.6C1743.6 1411.6 1738.4 1414.6 1734 1420.3C1729 1426.7 1725.7 1435.6 1724.7 1445.4C1723.7 1455.2 1725.2 1464.6 1728.9 1471.9C1732.4 1478.8 1737.4 1482.9 1743 1483.5C1748.6 1484.1 1754.3 1481 1759.1 1474.9C1764.1 1468.5 1767.4 1459.6 1768.4 1449.8C1769.4 1440 1767.9 1430.6 1764.2 1423.3C1760.7 1416.4 1755.7 1412.3 1750.1 1411.7C1749.6 1411.6 1749.2 1411.6 1748.8 1411.6Z" fill="#1E1B24"/>
<path d="M2272.38 1560.13C2316.85 1555.76 2347.87 1501.07 2341.68 1437.97C2335.48 1374.87 2294.41 1327.26 2249.95 1331.63C2205.48 1335.99 2174.46 1390.68 2180.65 1453.78C2186.85 1516.88 2227.91 1564.49 2272.38 1560.13Z" fill="#1E1B24"/>
<path d="M2242.62 1468.19C2256.03 1466.87 2265.22 1448.65 2263.14 1427.49C2261.07 1406.33 2248.51 1390.24 2235.1 1391.56C2221.69 1392.88 2212.5 1411.1 2214.58 1432.26C2216.66 1453.42 2229.21 1469.51 2242.62 1468.19Z" fill="white"/>
<path d="M2241.1 1470.9C2234.3 1470.9 2227.8 1467.2 2222.4 1460.3C2216.8 1453.1 2213.1 1443.3 2212.1 1432.6C2209.9 1410.1 2220.1 1390.6 2234.9 1389.1C2249.7 1387.6 2263.5 1404.8 2265.7 1427.3C2266.8 1438 2265.1 1448.4 2261 1456.5C2256.7 1465 2250.3 1470.1 2242.9 1470.8C2242.3 1470.8 2241.7 1470.9 2241.1 1470.9ZM2217 1432.1C2218 1441.9 2221.3 1450.8 2226.3 1457.2C2231.1 1463.3 2236.8 1466.3 2242.4 1465.8C2248 1465.2 2253 1461.1 2256.5 1454.2C2260.2 1446.9 2261.7 1437.5 2260.7 1427.7C2258.8 1407.9 2247.3 1392.8 2235.3 1394C2223.3 1395.3 2215.1 1412.3 2217 1432.1Z" fill="#1E1B24"/>
<path d="M2237.6 3057.1C2253 3047.9 2264.1 3032 2266.3 3012.8C2270.1 2980.1 2246.7 2950.5 2214.1 2946.7C2182 2942.9 2152.9 2965.5 2148.2 2997.3L1872.7 2965.1C1875.4 2933.2 1852.3 2904.7 1820.3 2901C1787.6 2897.2 1758 2920.6 1754.2 2953.2C1752 2972.4 1759.1 2990.5 1771.9 3002.9C1756.5 3012.1 1745.4 3028 1743.2 3047.2C1739.4 3079.9 1762.8 3109.5 1795.4 3113.3C1827.4 3117 1856.5 3094.6 1861.2 3063L2136.7 3095.2C2134.2 3127 2157.2 3155.3 2189.1 3159.1C2221.8 3162.9 2251.4 3139.5 2255.2 3106.9C2257.6 3087.7 2250.5 3069.6 2237.6 3057.1Z" fill="#FF6D6D"/>
<path d="M2196.2 3172.1C2193.4 3172.1 2190.6 3171.9 2187.8 3171.6C2153.2 3167.6 2127.2 3140 2124.3 3106.4L1870.9 3076.8C1860.4 3108.9 1828.7 3129.9 1794 3125.8C1774.9 3123.6 1757.7 3114 1745.8 3098.9C1733.9 3083.8 1728.5 3064.9 1730.7 3045.8C1732.8 3028.2 1741 3012.4 1753.8 3000.9C1744 2986.7 1739.7 2969.4 1741.7 2951.8C1743.9 2932.7 1753.5 2915.5 1768.6 2903.6C1783.7 2891.6 1802.6 2886.3 1821.7 2888.5C1856.5 2892.6 1882.4 2920.3 1885.2 2953.9L2138.5 2983.5C2148.9 2951.2 2180.6 2930.1 2215.5 2934.2C2255 2938.8 2283.4 2974.7 2278.8 3014.2C2276.7 3031.8 2268.5 3047.6 2255.7 3059.1C2265.5 3073.3 2269.8 3090.6 2267.8 3108.2C2263.5 3145 2232.3 3172.1 2196.2 3172.1ZM1861.3 3050.4C1861.8 3050.4 1862.3 3050.4 1862.8 3050.5L2138.3 3082.7C2145 3083.5 2149.9 3089.4 2149.4 3096.2C2147.4 3121.5 2165.6 3143.6 2190.8 3146.6C2216.5 3149.6 2239.9 3131.1 2243 3105.4C2244.7 3090.8 2239.6 3076.5 2229 3066.2C2226.2 3063.5 2224.8 3059.6 2225.3 3055.7C2225.8 3051.8 2228 3048.4 2231.4 3046.4C2244.1 3038.8 2252.4 3026.1 2254.1 3011.5C2257.1 2985.8 2238.6 2962.4 2212.9 2959.3C2187.4 2956.3 2164.6 2973.9 2160.9 2999.2C2159.9 3005.9 2153.7 3010.7 2147 3009.9L1871.5 2977.7C1864.8 2976.9 1859.9 2970.9 1860.4 2964.2C1862.5 2938.8 1844.4 2916.6 1819 2913.6C1806.5 2912.1 1794.2 2915.6 1784.4 2923.4C1774.5 2931.2 1768.3 2942.3 1766.9 2954.8C1765.2 2969.4 1770.3 2983.7 1780.9 2994C1783.7 2996.7 1785.1 3000.6 1784.6 3004.5C1784.1 3008.4 1781.9 3011.8 1778.5 3013.8C1765.8 3021.4 1757.5 3034.1 1755.8 3048.7C1752.8 3074.4 1771.3 3097.8 1797 3100.9C1822.3 3103.9 1845.1 3086.4 1848.9 3061.2C1849.8 3054.9 1855.2 3050.4 1861.3 3050.4Z" fill="#1E1B24"/>
<path d="M3246.41 3653.4C3246.41 3653.72 3245.15 3654.29 3243.63 3654.79C3240.92 3655.55 3239.21 3656.81 3237.45 3659.08C3235.8 3661.29 3231.13 3664.45 3229.37 3664.57C3228.17 3664.64 3227.03 3665.33 3226.09 3666.53C3223.81 3669.5 3222.49 3670.63 3221.48 3670.63C3220.97 3670.63 3220.53 3671.07 3220.53 3671.64C3220.53 3672.21 3219.46 3673.73 3218.07 3674.99C3216.74 3676.25 3215.29 3677.95 3214.85 3678.77C3213.9 3680.67 3213.21 3681.49 3210.62 3684.14C3209.55 3685.28 3208.22 3687.17 3207.66 3688.37C3206.33 3691.27 3203.62 3695.82 3202.61 3696.89C3202.1 3697.33 3201.53 3698.78 3201.28 3700.11C3201.03 3701.37 3200.33 3702.82 3199.64 3703.33C3199.01 3703.77 3198.44 3704.46 3198.44 3704.84C3198.44 3705.47 3196.99 3709.01 3195.85 3711.15C3195.54 3711.78 3195.29 3712.79 3195.29 3713.36C3195.29 3713.99 3194.72 3716.2 3194.02 3718.28C3193.33 3720.37 3192.63 3723.21 3192.38 3724.53C3192.19 3725.92 3191.81 3726.68 3191.56 3726.3C3191.18 3725.61 3190.99 3727.75 3190.74 3738.8C3190.49 3748.14 3191.88 3756.09 3194.15 3758.11C3195.54 3759.37 3195.66 3761.01 3194.34 3760.51C3193.64 3760.19 3193.52 3760.76 3193.71 3763.54C3193.83 3765.37 3194.28 3767.7 3194.65 3768.71C3195.54 3771.05 3195.03 3772.44 3192.63 3774.46C3191.56 3775.34 3190.87 3776.29 3191.12 3776.48C3191.56 3776.92 3189.61 3778.49 3188.6 3778.56C3188.22 3778.56 3187.65 3777.11 3187.46 3775.28C3187.21 3773.51 3186.58 3771.05 3186.07 3769.85C3185.57 3768.65 3185.19 3766.57 3185.19 3765.18C3185.19 3759.69 3181.02 3754.7 3172.31 3749.9C3168.4 3747.69 3167.7 3747.51 3164.74 3747.88C3162.97 3748.14 3161.08 3748.33 3160.57 3748.33C3158.24 3748.52 3148.01 3752.37 3145.43 3754.01C3143.91 3755.02 3141.58 3756.22 3140.25 3756.59C3138.92 3756.97 3137.85 3757.48 3137.85 3757.73C3137.85 3758.3 3134 3760 3133.31 3759.75C3132.99 3759.69 3132.8 3759.88 3132.8 3760.19C3132.8 3760.51 3131.98 3761.08 3130.97 3761.52C3129.96 3761.9 3128.95 3762.65 3128.76 3763.16C3128.57 3763.66 3127.88 3764.04 3127.19 3764.04C3126.49 3764.04 3125.1 3764.8 3124.09 3765.75C3123.08 3766.76 3120.87 3768.65 3119.23 3770.04C3117.66 3771.43 3115.95 3772.94 3115.57 3773.38C3115.13 3773.89 3113.81 3775.34 3112.54 3776.73C3109.45 3779.95 3106.29 3784.3 3106.29 3785.25C3106.29 3785.63 3105.92 3786.13 3105.41 3786.32C3104.97 3786.51 3104.4 3787.65 3104.15 3788.91C3103.9 3790.11 3103.08 3791.94 3102.26 3792.88C3100.49 3794.97 3098.85 3800.84 3099.1 3804.25C3099.67 3813.78 3100.55 3816.93 3104.09 3821.22C3105.28 3822.67 3106.29 3824.19 3106.29 3824.57C3106.29 3824.88 3107.62 3826.4 3109.26 3827.91C3110.84 3829.43 3112.73 3831.13 3113.3 3831.7C3113.93 3832.33 3115.57 3833.47 3116.9 3834.35C3118.98 3835.68 3119.36 3836.18 3119.11 3837.51C3118.92 3838.39 3118.41 3839.15 3117.91 3839.15C3117.47 3839.15 3116.58 3839.9 3116.01 3840.79C3115.19 3841.99 3114.82 3842.18 3114.44 3841.55C3113.99 3840.91 3113.87 3840.98 3113.87 3841.73C3113.87 3842.3 3112.16 3844.01 3110.14 3845.46C3108.06 3846.97 3106.48 3848.43 3106.67 3848.74C3106.86 3848.99 3106.42 3849.25 3105.66 3849.25C3104.97 3849.25 3104.15 3849.75 3103.96 3850.32C3103.27 3852.02 3101.69 3853.66 3100.61 3853.66C3099.73 3853.66 3093.67 3859.72 3093.67 3860.61C3093.67 3860.8 3092.41 3862.25 3090.83 3863.76C3089.25 3865.28 3087.99 3866.92 3087.99 3867.36C3087.99 3867.8 3087.49 3868.18 3086.92 3868.18C3085.72 3868.18 3083.76 3870.7 3081.93 3874.62C3081.3 3875.94 3080.35 3877.14 3079.72 3877.33C3078.52 3877.71 3076 3882.38 3076 3884.15C3076 3885.98 3078.34 3887.75 3080.67 3887.75C3082.56 3887.75 3082.88 3887.56 3083.07 3886.04C3083.2 3884.65 3083.7 3884.21 3085.66 3883.77C3086.92 3883.45 3087.99 3882.95 3087.99 3882.7C3087.99 3882.38 3089.51 3881.69 3091.34 3881.06C3093.1 3880.49 3095.25 3879.6 3096.01 3879.1C3096.76 3878.59 3097.9 3878.28 3098.59 3878.4C3099.92 3878.59 3104.65 3874.18 3104.09 3873.23C3103.39 3872.09 3100.93 3872.6 3099.73 3874.05C3098.72 3875.37 3098.34 3875.44 3095.82 3874.87C3094.18 3874.49 3093.04 3873.86 3093.04 3873.29C3093.04 3871.97 3101.31 3864.27 3102.32 3864.65C3102.76 3864.83 3103.14 3864.65 3103.14 3864.2C3103.14 3863.32 3106.23 3861.74 3106.99 3862.25C3107.3 3862.44 3107.37 3862.18 3107.18 3861.68C3106.99 3861.17 3107.12 3860.54 3107.49 3860.29C3107.87 3860.1 3108.19 3859.22 3108.19 3858.4C3108.19 3856.57 3110.21 3855.3 3112.23 3855.81C3113.24 3856.06 3114.25 3855.56 3115.95 3853.92C3117.21 3852.65 3118.29 3851.27 3118.29 3850.82C3118.29 3850.38 3118.79 3849.88 3119.49 3849.69C3120.37 3849.5 3120.56 3848.99 3120.31 3847.67C3120.05 3846.09 3120.18 3845.96 3121.38 3846.28C3122.77 3846.59 3123.78 3845.84 3122.77 3845.21C3122.45 3844.95 3122.58 3844.01 3123.15 3842.93C3123.84 3841.48 3124.47 3841.04 3125.86 3841.04C3127.75 3841.04 3132.8 3843.31 3132.8 3844.2C3132.8 3845.21 3146.69 3849.43 3152.37 3850.13C3154.26 3850.38 3156.98 3850.76 3158.36 3850.95C3159.75 3851.14 3162.09 3851.27 3163.54 3851.2C3164.99 3851.2 3166.38 3851.39 3166.57 3851.77C3166.95 3852.4 3169.85 3852.02 3170.99 3851.14C3171.37 3850.82 3172.82 3850.7 3174.33 3850.76C3175.85 3850.82 3177.17 3850.7 3177.36 3850.38C3177.55 3850.07 3177.93 3850 3178.24 3850.19C3178.56 3850.38 3180.26 3849.94 3182.03 3849.25C3183.8 3848.55 3185.88 3847.98 3186.64 3847.98C3187.96 3848.05 3187.96 3848.05 3186.83 3848.93C3184.49 3850.7 3186.39 3850.57 3190.11 3848.68C3192.19 3847.67 3194.02 3846.97 3194.28 3847.16C3194.47 3847.42 3194.65 3847.29 3194.65 3846.91C3194.65 3846.03 3199.39 3842.93 3200.78 3842.93C3201.41 3842.93 3203.05 3841.8 3204.44 3840.35C3211.7 3833.03 3213.34 3831.57 3214.72 3831.57C3215.99 3831.57 3216.05 3831.38 3215.48 3830.31C3215.1 3829.62 3214.98 3828.73 3215.17 3828.42C3215.8 3827.41 3218.01 3827.66 3218.01 3828.73C3218.01 3829.24 3218.32 3829.68 3218.64 3829.68C3219.02 3829.68 3219.14 3828.99 3218.89 3828.1C3218.45 3826.34 3219.84 3824.63 3223.37 3822.36C3224.44 3821.73 3225.96 3820.34 3226.84 3819.33C3231.2 3814.28 3231.89 3813.33 3231.89 3812.39C3231.89 3810.56 3233.66 3812.07 3235.49 3815.54C3236.44 3817.44 3237.64 3818.95 3238.08 3818.95C3238.52 3818.95 3240.03 3819.71 3241.49 3820.59C3243.76 3822.04 3244.51 3822.23 3247.48 3821.85C3251.52 3821.35 3259.28 3818.76 3260.61 3817.44C3261.11 3816.93 3262.88 3815.86 3264.52 3815.04C3266.1 3814.22 3267.55 3813.08 3267.74 3812.45C3267.87 3811.82 3268.62 3811.38 3269.44 3811.38C3270.45 3811.38 3271.09 3810.81 3271.65 3809.55C3272.1 3808.47 3273.29 3807.21 3274.56 3806.64C3275.76 3806.08 3276.7 3805.32 3276.7 3805C3276.7 3803.93 3280.36 3800.77 3280.99 3801.22C3281.37 3801.41 3282.26 3803.87 3283.08 3806.64C3284.4 3811.5 3286.74 3815.16 3288.38 3815.16C3288.82 3815.16 3289.64 3815.73 3290.27 3816.43C3290.9 3817.12 3291.85 3817.69 3292.36 3817.69C3292.8 3817.69 3294.06 3818.26 3295.01 3818.95C3297.09 3820.47 3301.38 3820.97 3304.85 3820.21C3306.49 3819.83 3308.58 3819.9 3311.1 3820.47C3313.18 3820.91 3315.45 3821.29 3316.15 3821.35C3316.84 3821.35 3318.74 3821.6 3320.38 3821.85C3322.52 3822.17 3324.35 3821.92 3326.69 3821.16C3328.52 3820.59 3330.6 3819.96 3331.3 3819.83C3331.99 3819.71 3333.44 3819.2 3334.45 3818.7C3335.53 3818.19 3337.67 3817.18 3339.38 3816.43C3341.14 3815.61 3342.34 3814.66 3342.4 3814.03C3342.4 3813.46 3344.49 3811.44 3347.01 3809.61C3352.06 3805.95 3358.69 3799.76 3359.7 3797.87C3360.9 3795.54 3361.78 3796.04 3362.22 3799.2C3362.73 3803.36 3364.49 3808.85 3365.88 3810.75C3367.02 3812.26 3371.12 3813.59 3371.5 3812.64C3371.63 3812.39 3373.52 3811.25 3375.79 3810.18C3381.91 3807.15 3382.8 3806.58 3384.82 3804.43C3385.89 3803.3 3388.16 3801.47 3389.93 3800.33C3391.76 3799.2 3393.59 3797.81 3394.03 3797.24C3394.47 3796.67 3395.55 3796.23 3396.37 3796.23C3397.19 3796.23 3397.88 3795.98 3397.88 3795.6C3397.88 3795.28 3398.95 3794.53 3400.22 3794.02C3403.18 3792.76 3403.69 3793.45 3403.25 3798.12C3402.8 3802.04 3403.75 3809.61 3405.14 3813.96C3406.02 3816.49 3406.47 3816.93 3408.61 3817.63C3411.26 3818.38 3412.71 3818 3414.29 3816.17C3414.73 3815.61 3415.74 3815.16 3416.5 3815.16C3418.58 3815.16 3421.3 3813.46 3423.13 3811.06C3424.07 3809.8 3425.02 3809.17 3425.59 3809.36C3426.09 3809.55 3426.35 3809.42 3426.09 3809.04C3425.65 3808.35 3431.21 3803.24 3433.98 3801.72C3438.02 3799.45 3439.54 3798.38 3439.54 3797.74C3439.54 3796.8 3441.75 3794.84 3442.25 3795.41C3442.5 3795.6 3442.69 3795.47 3442.69 3795.09C3442.69 3793.89 3447.93 3790.74 3448.25 3791.69C3448.37 3792.13 3449.19 3792.76 3450.01 3793.07C3451.09 3793.52 3451.53 3794.15 3451.53 3795.28C3451.53 3796.23 3451.91 3796.86 3452.41 3796.86C3452.92 3796.86 3453.93 3797.74 3454.68 3798.82C3455.5 3799.89 3456.45 3800.58 3456.96 3800.4C3457.4 3800.21 3458.16 3800.46 3458.6 3800.84C3460.49 3802.73 3466.04 3803.42 3467.5 3801.97C3467.88 3801.59 3468.95 3801.28 3469.89 3801.28C3470.9 3801.28 3471.73 3800.84 3471.98 3800.27C3472.48 3798.88 3472.42 3798.88 3469.33 3798.5C3465.86 3798.06 3458.85 3793.33 3458.6 3791.18C3458.47 3790.36 3457.9 3789.35 3457.4 3788.97C3456.89 3788.59 3456.51 3788.02 3456.58 3787.71C3457.08 3785.31 3455.13 3784.43 3449.32 3784.55C3443.39 3784.68 3437.01 3787.77 3431.96 3792.95C3430.01 3794.9 3427.67 3797.11 3426.85 3797.81C3422.12 3801.72 3419.28 3803.8 3418.77 3803.8C3418.46 3803.8 3417.01 3805.13 3415.62 3806.77C3414.23 3808.41 3412.9 3809.55 3412.65 3809.29C3412.4 3809.1 3412.15 3806.01 3412.08 3802.54C3411.96 3797.24 3411.64 3795.66 3410.32 3792.88C3409.43 3791.12 3408.55 3788.85 3408.36 3787.84C3408.11 3786.89 3407.6 3786.13 3407.16 3786.13C3406.72 3786.13 3405.9 3785.56 3405.27 3784.87C3404 3783.35 3403.18 3783.67 3395.99 3788.02C3393.4 3789.6 3390.5 3791.24 3389.55 3791.75C3388.67 3792.19 3387.03 3793.39 3385.95 3794.4C3384.88 3795.35 3384 3796.04 3384 3795.85C3384 3795.66 3382.73 3796.55 3381.22 3797.74C3379.77 3799.01 3378.06 3800.02 3377.5 3800.02C3376.93 3800.02 3376.36 3800.27 3376.11 3800.58C3375.92 3800.96 3374.91 3801.66 3373.84 3802.16C3372 3803.05 3371.94 3803.05 3371.37 3801.53C3371 3800.65 3370.74 3799.7 3370.74 3799.39C3370.74 3799.07 3370.3 3797.62 3369.73 3796.23C3368.72 3793.64 3367.27 3793.01 3365.82 3794.46C3364.43 3795.85 3364.18 3794.34 3365.5 3792.57C3367.21 3790.3 3367.15 3786.38 3365.44 3786.64C3364.62 3786.76 3364.37 3786.57 3364.62 3785.94C3365.19 3784.49 3364.12 3783.48 3361.78 3783.42C3359.07 3783.35 3357.61 3784.68 3355.03 3789.6C3352.5 3794.4 3350.04 3797.68 3344.8 3803.17C3342.47 3805.57 3340.45 3807.97 3340.2 3808.54C3340.01 3809.04 3339.44 3809.48 3338.87 3809.48C3338.37 3809.48 3337.92 3809.74 3337.92 3810.05C3337.92 3810.37 3336.79 3811.06 3335.46 3811.57C3334.07 3812.13 3332.81 3812.89 3332.56 3813.27C3332.37 3813.59 3331.49 3813.9 3330.6 3813.9C3329.78 3813.9 3329.09 3814.22 3329.09 3814.53C3329.09 3814.97 3328.71 3814.97 3327.83 3814.53C3327.13 3814.15 3326.56 3813.46 3326.56 3812.95C3326.56 3811.88 3328.77 3809.48 3329.72 3809.48C3330.1 3809.48 3331.61 3808.41 3333.06 3807.09C3338.74 3802.04 3341.46 3798.94 3343.16 3795.66C3345.18 3791.69 3345.24 3791.24 3343.6 3792.76C3341.77 3794.46 3342.09 3792.95 3344.36 3789.29C3347.26 3784.68 3346.89 3779.25 3343.6 3778.24C3342.91 3778.05 3342.34 3777.61 3342.34 3777.3C3342.34 3777.04 3341.14 3776.6 3339.69 3776.35C3338.18 3776.1 3336.66 3775.59 3336.22 3775.28C3334.7 3774.08 3331.68 3774.64 3326.37 3777.17C3322.33 3779.06 3320.69 3780.2 3320.25 3781.4C3319.94 3782.28 3319.43 3782.98 3319.12 3782.98C3318.8 3782.98 3317.92 3783.54 3317.1 3784.24C3315.9 3785.31 3315.58 3785.31 3314.76 3784.55C3313.75 3783.54 3312.68 3783.8 3312.68 3785.06C3312.68 3785.5 3311.67 3786.64 3310.47 3787.65C3309.27 3788.66 3308.26 3789.86 3308.26 3790.23C3308.26 3790.68 3307.69 3791.5 3307.06 3792.06C3304.79 3794.15 3303.27 3798.82 3303.15 3804.5C3303.08 3807.4 3303.08 3810.37 3303.27 3811.06C3303.46 3812.13 3303.15 3812.32 3301 3812.51C3299.05 3812.64 3298.04 3812.32 3296.65 3811.12C3295.64 3810.24 3294.37 3809.36 3293.74 3809.17C3291.79 3808.54 3290.59 3804.56 3290.4 3797.49C3290.27 3793.83 3290.4 3790.04 3290.65 3789.1C3291.28 3786.89 3289.39 3782.09 3287.5 3781.08C3286.61 3780.64 3286.17 3780.64 3286.17 3781.08C3286.17 3781.4 3285.79 3781.71 3285.35 3781.71C3284.28 3781.71 3282.07 3784.68 3281.56 3786.89C3281.31 3787.84 3279.16 3790.55 3276.83 3792.95C3274.49 3795.35 3272.1 3798.25 3271.46 3799.45C3270.71 3800.84 3268.56 3802.79 3265.03 3805.07C3262.06 3806.96 3259.66 3808.92 3259.66 3809.36C3259.66 3809.8 3258.9 3810.43 3257.96 3810.75C3256.95 3811.12 3255.69 3811.63 3255.12 3812.01C3254.55 3812.32 3252.15 3812.89 3249.75 3813.27C3245.02 3814.03 3243.06 3813.46 3242.31 3811.12C3240.29 3804.62 3240.16 3803.11 3241.42 3799.01C3242.12 3796.8 3242.94 3794.84 3243.25 3794.65C3244.01 3794.21 3245.4 3791.18 3247.42 3785.56L3248.87 3781.46L3247.61 3779.38C3245.4 3775.84 3244.14 3775.59 3241.61 3777.99C3240.41 3779.13 3239.47 3780.32 3239.47 3780.64C3239.47 3781.02 3238.77 3782.72 3237.95 3784.49C3236.44 3787.71 3234.16 3792.88 3233.22 3795.28C3232.9 3795.98 3231.64 3798.69 3230.31 3801.28C3228.99 3803.87 3227.47 3806.83 3226.97 3807.91C3226.4 3808.92 3225.64 3810.05 3225.14 3810.3C3224.7 3810.56 3224.32 3811.12 3224.32 3811.44C3224.32 3812.32 3220.53 3817.12 3218.95 3818.32C3218.26 3818.82 3217.06 3819.9 3216.37 3820.65C3215.61 3821.48 3214.72 3822.11 3214.41 3822.11C3213.4 3822.11 3212.2 3820.4 3212.89 3819.96C3213.21 3819.77 3213.65 3819.96 3213.78 3820.34C3214.09 3821.03 3214.35 3817.69 3214.54 3811.06C3214.54 3809.99 3214.16 3808.54 3213.65 3807.72C3213.15 3806.9 3212.64 3805.51 3212.52 3804.56C3212.39 3803.61 3212.2 3801.97 3212.01 3800.96C3211.63 3798.06 3210.75 3795.16 3208.54 3789.6C3205.45 3781.78 3205.13 3780.64 3204.37 3774.46C3204.06 3772.06 3204.25 3771.74 3207.85 3767.95C3209.99 3765.81 3211.7 3763.79 3211.7 3763.54C3211.7 3763.16 3212.83 3761.77 3218.01 3755.96C3218.7 3755.21 3219.27 3754.39 3219.27 3754.2C3219.27 3754.01 3219.65 3753.44 3220.09 3753C3221.6 3751.23 3222.17 3750.41 3223.43 3748.33C3224.07 3747.13 3225.08 3745.68 3225.58 3745.11C3227.6 3742.9 3230 3739.81 3230 3739.3C3230 3739.05 3230.95 3737.85 3232.08 3736.59C3235.24 3733.18 3235.62 3732.61 3236.44 3730.78C3237.38 3728.26 3237.7 3723.65 3236.81 3723.65C3236.44 3723.65 3236.31 3723.46 3236.5 3723.21C3236.75 3723.02 3237.45 3723.33 3238.14 3723.9C3239.28 3724.91 3239.4 3724.91 3241.3 3722.89C3242.37 3721.76 3243.25 3720.49 3243.25 3720.11C3243.25 3719.74 3244.14 3718.09 3245.27 3716.45C3246.85 3713.99 3247.23 3712.79 3247.23 3710.21C3247.23 3708.37 3247.29 3707.55 3247.48 3708.37C3248.05 3711.15 3249.25 3709.45 3249.12 3706.04C3249 3703.58 3249.25 3702.69 3249.94 3702.38C3250.51 3702.19 3251.2 3701.31 3251.65 3700.36C3252.28 3698.78 3252.34 3698.72 3252.53 3700.11C3252.72 3700.93 3253.03 3701.56 3253.29 3701.56C3253.79 3701.56 3256.51 3695.37 3256.51 3694.11C3256.51 3693.73 3256.95 3693.35 3257.52 3693.35C3258.84 3693.35 3258.27 3691.84 3256.82 3691.59C3256.19 3691.46 3255.88 3691.59 3256.13 3691.97C3256.32 3692.34 3256.25 3692.79 3255.94 3692.98C3255.69 3693.16 3255.18 3694.24 3254.93 3695.37C3254.49 3697.39 3254.49 3697.46 3253.98 3695.88C3253.73 3694.93 3253.86 3693.92 3254.3 3693.35C3255.81 3691.4 3258.46 3686.41 3258.34 3685.59C3258.08 3683.32 3258.46 3682.12 3259.54 3682.25C3260.1 3682.25 3260.55 3681.93 3260.42 3681.49C3260.36 3681.05 3260.8 3679.91 3261.43 3678.96C3263.32 3676.25 3264.58 3671.33 3264.65 3666.4L3264.71 3661.86L3261.18 3657.76C3259.22 3655.55 3257.01 3653.53 3256.25 3653.4C3253.92 3652.83 3246.41 3652.9 3246.41 3653.4ZM3251.02 3664.13C3252.15 3664.76 3254.11 3666.09 3255.43 3667.04C3258.27 3669.24 3258.46 3670.95 3256.32 3677.32C3255.5 3679.72 3254.61 3682.69 3254.36 3683.95C3254.17 3685.21 3252.78 3688.49 3251.39 3691.21C3249.94 3693.92 3247.86 3697.96 3246.72 3700.11C3245.59 3702.25 3244.39 3704.4 3244.07 3704.84C3243.69 3705.28 3243.06 3706.73 3242.68 3708C3242.24 3709.32 3241.67 3710.39 3241.36 3710.39C3241.11 3710.39 3240.54 3711.22 3240.1 3712.29C3239.65 3713.3 3239.09 3714.18 3238.77 3714.18C3238.46 3714.18 3238.2 3714.88 3238.2 3715.76C3238.2 3716.77 3237.82 3717.34 3237.26 3717.34C3236.69 3717.34 3235.49 3718.98 3234.42 3721.25C3233.41 3723.46 3231.58 3726.24 3230.31 3727.44C3229.05 3728.63 3227.6 3730.46 3227.1 3731.54C3226.27 3733.3 3223.25 3737.53 3220.85 3740.18C3220.34 3740.82 3219.9 3741.7 3219.9 3742.2C3219.9 3742.71 3219.08 3743.59 3218.01 3744.29C3215.99 3745.55 3211.06 3752.18 3211.06 3753.63C3211.06 3754.13 3210.75 3754.57 3210.43 3754.57C3210.05 3754.57 3209.49 3755.27 3209.17 3756.09C3208.86 3756.91 3208.03 3757.79 3207.34 3758.05C3206.65 3758.24 3205.45 3759.43 3204.75 3760.63C3204 3761.77 3203.17 3762.78 3202.86 3762.78C3202.35 3762.78 3201.28 3759.06 3200.65 3754.89C3200.4 3753.56 3199.83 3751.61 3199.32 3750.66C3198.82 3749.71 3198.44 3747.95 3198.44 3746.69C3198.44 3745.42 3198.06 3743.47 3197.56 3742.33C3197.05 3741.13 3196.93 3739.87 3197.18 3739.36C3197.49 3738.92 3197.49 3738.1 3197.18 3737.47C3196.86 3736.9 3196.74 3736.27 3196.93 3736.15C3197.05 3735.96 3197.31 3734.82 3197.43 3733.68C3197.56 3732.48 3198.32 3729.27 3199.07 3726.49C3199.83 3723.71 3200.52 3720.81 3200.52 3720.05C3200.59 3719.29 3200.84 3718.47 3201.16 3718.22C3201.41 3717.97 3201.6 3717.15 3201.6 3716.45C3201.6 3715.38 3201.47 3715.32 3200.97 3716.07C3200.46 3716.9 3200.33 3716.9 3200.33 3715.95C3200.33 3715.38 3200.52 3714.43 3200.71 3713.93C3201.09 3712.98 3201.22 3712.98 3202.04 3713.99C3202.86 3715 3202.92 3714.81 3202.54 3712.1C3202.29 3710.21 3202.42 3709.13 3202.8 3709.13C3203.17 3709.13 3203.49 3708.69 3203.49 3708.19C3203.49 3707.62 3203.93 3707.05 3204.44 3706.86C3204.94 3706.61 3205.38 3706.17 3205.38 3705.72C3205.38 3705.35 3205.95 3703.89 3206.65 3702.51C3207.34 3701.12 3207.91 3699.79 3207.91 3699.48C3207.91 3699.16 3208.6 3698.09 3209.49 3697.01C3210.37 3696 3211.06 3694.74 3211.06 3694.24C3211.06 3693.73 3211.32 3693.35 3211.63 3693.35C3211.95 3693.35 3213.08 3691.84 3214.16 3690.01C3215.23 3688.24 3217.06 3685.59 3218.32 3684.2C3219.52 3682.81 3221.6 3680.48 3222.87 3678.96C3224.19 3677.45 3226.21 3675.68 3227.35 3674.99C3228.42 3674.29 3229.37 3673.35 3229.37 3672.9C3229.37 3672.46 3230.5 3671.71 3231.89 3671.26C3233.28 3670.82 3234.42 3670.06 3234.42 3669.69C3234.42 3669.24 3235.24 3668.55 3236.25 3668.11C3237.26 3667.73 3238.27 3666.97 3238.46 3666.47C3238.64 3665.96 3239.4 3665.58 3240.1 3665.58C3240.79 3665.58 3241.36 3665.14 3241.36 3664.57C3241.36 3663.75 3241.49 3663.75 3242.62 3664.51C3243.76 3665.33 3244.2 3665.27 3246.28 3664.26C3249.06 3662.81 3248.62 3662.81 3251.02 3664.13ZM3164.11 3758.05C3165.69 3759.24 3167.14 3759.24 3166.69 3758.05C3166.06 3756.4 3170.1 3757.73 3173.07 3760.07C3176.04 3762.46 3177.61 3765.05 3177.61 3767.45C3177.61 3768.33 3178.06 3770.29 3178.56 3771.8C3179.07 3773.32 3179.57 3777.04 3179.7 3780.14C3179.95 3786.57 3179.25 3788.47 3176.16 3790.68C3174.21 3792.06 3172.63 3793.52 3161.96 3803.8C3159.06 3806.58 3156.34 3808.85 3155.97 3808.85C3155.52 3808.85 3154.01 3809.99 3152.49 3811.38C3150.98 3812.77 3149.65 3813.9 3149.46 3813.9C3149.34 3813.9 3148.27 3814.79 3147.13 3815.86C3146.06 3816.93 3143.97 3818.57 3142.59 3819.52C3141.2 3820.4 3139.37 3821.85 3138.55 3822.74C3137.66 3823.62 3136.72 3824.32 3136.46 3824.32C3136.15 3824.32 3135.71 3824.63 3135.45 3825.01C3135.2 3825.39 3134.38 3825.96 3133.56 3826.15C3132.8 3826.4 3131.1 3827.72 3129.84 3829.11C3128.57 3830.44 3127.25 3831.57 3126.87 3831.57C3125.73 3831.51 3116.58 3824.44 3115.07 3822.42C3114.31 3821.35 3112.92 3819.65 3111.98 3818.64C3111.03 3817.56 3109.45 3815.16 3108.44 3813.27C3107.43 3811.38 3106.17 3809.42 3105.66 3808.98C3105.16 3808.54 3105.03 3808.28 3105.47 3808.47C3106.36 3808.98 3106.8 3806.77 3106.86 3800.71C3106.93 3795.09 3108 3790.87 3109.13 3791.81C3109.7 3792.32 3110.84 3791.37 3113.3 3788.34C3115.13 3786.07 3116.96 3784.24 3117.47 3784.24C3117.91 3784.24 3118.29 3783.92 3118.29 3783.54C3118.29 3781.84 3129.77 3769.53 3132.05 3768.84C3132.87 3768.59 3134 3768.78 3135.01 3769.47C3136.84 3770.67 3137.09 3770.1 3135.52 3768.33C3134.57 3767.26 3134.57 3767.07 3135.9 3765.68C3137.41 3764.1 3139.3 3764.1 3140.88 3765.75C3141.51 3766.31 3142.08 3766.38 3142.96 3765.93C3144.42 3765.11 3144.54 3764.29 3143.22 3763.79C3142.71 3763.6 3142.27 3763.09 3142.27 3762.59C3142.27 3761.45 3147.13 3758.74 3147.63 3759.62C3148.14 3760.44 3151.11 3760.44 3151.11 3759.69C3151.11 3759.31 3151.86 3759.31 3152.94 3759.62C3154.39 3760 3154.7 3759.94 3154.64 3759.06C3154.58 3758.24 3155.15 3758.05 3157.61 3758.05C3159.25 3758.11 3160.57 3757.86 3160.57 3757.6C3160.57 3756.78 3162.78 3757.04 3164.11 3758.05ZM3198 3781.52C3198.5 3782.16 3200.65 3787.9 3202.8 3794.34C3204.88 3800.77 3206.9 3806.71 3207.21 3807.59C3207.47 3808.47 3207.97 3809.74 3208.22 3810.43C3208.54 3811.44 3208.54 3811.5 3207.97 3810.75C3206.65 3808.85 3206.58 3810.75 3207.91 3812.89C3208.67 3814.15 3209.04 3815.16 3208.73 3815.16C3208.48 3815.16 3208.22 3816.8 3208.22 3818.76C3208.22 3820.78 3207.72 3823.75 3207.09 3825.39C3206.14 3827.85 3205.45 3828.54 3202.67 3829.93C3198.5 3832.08 3193.46 3833.21 3187.78 3833.4C3182.73 3833.53 3180.39 3832.58 3178.62 3829.68C3177.61 3827.91 3177.17 3822.74 3178.12 3822.74C3178.37 3822.74 3178.62 3820.91 3178.69 3818.7C3178.75 3815.86 3179.19 3813.71 3180.45 3811.12C3181.53 3808.85 3182.03 3806.9 3181.84 3805.89C3181.65 3804.94 3181.78 3803.61 3182.03 3802.92C3182.35 3802.16 3183.04 3799.89 3183.67 3797.81C3184.24 3795.72 3185.25 3793.45 3185.82 3792.76C3186.39 3792.06 3187.4 3790.3 3188.03 3788.85C3188.66 3787.39 3189.35 3786.32 3189.61 3786.45C3190.17 3786.83 3194.02 3783.61 3194.02 3782.72C3194.02 3782.16 3195.92 3780.51 3196.61 3780.45C3196.8 3780.45 3197.43 3780.96 3198 3781.52ZM3332.68 3782.66C3337.67 3782.98 3338.74 3783.8 3338.43 3787.02C3337.92 3791.56 3333.32 3797.24 3322.59 3806.83C3320.88 3808.35 3315.9 3810.11 3313.18 3810.11C3311.16 3810.11 3310.59 3808.28 3311.04 3803.61C3311.42 3799.83 3314 3793.07 3315.01 3793.07C3315.45 3793.07 3315.83 3792.82 3315.83 3792.51C3315.83 3792.19 3317.1 3790.99 3318.67 3789.86C3320.19 3788.66 3321.51 3787.33 3321.51 3786.89C3321.51 3786.51 3321.89 3786.13 3322.4 3786.13C3322.84 3786.13 3323.66 3785.63 3324.1 3785.06C3324.61 3784.49 3324.67 3784.17 3324.29 3784.43C3323.85 3784.68 3323.41 3784.43 3323.22 3783.99C3322.97 3783.42 3323.28 3783.04 3323.91 3783.04C3326.88 3782.85 3327.7 3782.66 3327.38 3782.09C3327.13 3781.71 3327.45 3781.71 3328.2 3781.97C3328.83 3782.22 3330.85 3782.53 3332.68 3782.66ZM3408.8 3792.19C3408.86 3792.44 3408.42 3792.7 3407.85 3792.82C3406.53 3793.01 3406.4 3792.38 3407.48 3791.31C3408.23 3790.55 3408.42 3790.74 3408.8 3792.19ZM3357.11 3797.11C3356.92 3797.68 3356.48 3797.93 3356.16 3797.74C3355.85 3797.56 3355.97 3797.05 3356.42 3796.55C3357.36 3795.54 3357.61 3795.72 3357.11 3797.11ZM3174.02 3803.61C3174.52 3804.43 3173.32 3812.2 3172.25 3815.29C3171.68 3817.12 3171.24 3820.47 3171.24 3824.13C3171.24 3829.43 3171.43 3830.37 3173.13 3833.85C3174.84 3837.13 3175.47 3837.82 3178.06 3838.96C3182.47 3840.85 3185.31 3841.67 3187.59 3841.67C3190.05 3841.67 3190.36 3843.38 3188.03 3843.94C3187.21 3844.13 3186.2 3844.7 3185.82 3845.14C3185.44 3845.58 3184.56 3845.84 3183.93 3845.65C3183.23 3845.46 3181.65 3845.77 3180.45 3846.34C3176.6 3848.17 3163.1 3847.67 3156.91 3845.46C3154.96 3844.7 3152.05 3843.75 3150.47 3843.31C3148.9 3842.87 3146.56 3841.99 3145.17 3841.42C3143.85 3840.85 3142.21 3840.41 3141.51 3840.41C3140.82 3840.41 3139.43 3839.78 3138.48 3838.96C3137.54 3838.2 3136.15 3837.13 3135.39 3836.62C3134.7 3836.12 3134.06 3835.36 3134.06 3834.98C3134.06 3833.97 3136.34 3833.47 3137.16 3834.29C3137.66 3834.79 3137.85 3834.79 3137.85 3834.29C3137.85 3833.85 3137.6 3833.34 3137.22 3833.15C3136.15 3832.52 3136.53 3831.89 3138.67 3830.63C3139.75 3830 3140.94 3829.11 3141.2 3828.61C3141.45 3828.17 3142.14 3827.79 3142.65 3827.79C3143.15 3827.79 3143.85 3827.09 3144.29 3826.27C3144.67 3825.39 3145.8 3824.38 3146.75 3823.94C3147.76 3823.56 3148.58 3822.93 3148.58 3822.61C3148.58 3822.3 3148.83 3822.17 3149.15 3822.42C3149.78 3822.8 3152.37 3820.4 3152.37 3819.46C3152.37 3819.2 3152.62 3818.95 3153 3818.95C3153.63 3818.95 3154.89 3817.94 3159.63 3813.52C3162.91 3810.49 3164.11 3809.93 3167.07 3809.99C3168.59 3810.05 3168.71 3809.93 3168.08 3808.79C3167.33 3807.27 3168.08 3806.14 3170.99 3804.31C3173.07 3803.05 3173.64 3802.92 3174.02 3803.61ZM3196.17 3840.91C3196.3 3841.17 3196.23 3841.8 3195.92 3842.3C3195.47 3843 3195.22 3843 3194.4 3842.37C3193.83 3841.92 3193.58 3841.29 3193.77 3840.98C3194.21 3840.28 3195.73 3840.22 3196.17 3840.91Z" fill="black"/>
<path d="M3130.28 3771.55C3130.28 3771.87 3130.59 3772.37 3130.91 3772.56C3131.29 3772.75 3131.54 3772.69 3131.54 3772.31C3131.54 3771.99 3131.29 3771.49 3130.91 3771.3C3130.59 3771.11 3130.28 3771.17 3130.28 3771.55Z" fill="black"/>
<path d="M3108.88 3794.08C3108.88 3794.78 3109.07 3794.97 3109.26 3794.46C3109.45 3794.02 3109.39 3793.45 3109.2 3793.26C3109.01 3793.01 3108.82 3793.39 3108.88 3794.08Z" fill="black"/>
<path d="M3517.17 3666.4C3516.98 3666.59 3515.15 3666.78 3513.06 3666.91C3509.47 3667.04 3505.18 3668.11 3502.21 3669.5C3501.52 3669.88 3500.57 3669.94 3500.19 3669.69C3499.75 3669.5 3499.56 3669.62 3499.62 3670.06C3499.75 3670.63 3499.12 3670.82 3497.41 3670.7C3494.57 3670.51 3490.22 3673.09 3489.65 3675.37C3488.64 3679.34 3499.18 3693.8 3502.46 3692.98C3503.53 3692.66 3504.04 3693.04 3504.8 3694.55C3506.06 3696.95 3508.39 3698.59 3509.85 3698.02C3511.8 3697.27 3510.92 3694.99 3507.38 3691.59C3505.49 3689.76 3503.91 3688.05 3503.91 3687.74C3503.91 3687.48 3503.22 3686.6 3502.34 3685.78C3501.45 3684.96 3500.76 3683.89 3500.76 3683.44C3500.76 3682.94 3500.44 3682.75 3500.13 3682.94C3499.31 3683.44 3497.29 3678.84 3498.04 3678.21C3498.3 3677.95 3499.56 3677.39 3500.88 3677.01C3503.6 3676.12 3504.36 3674.67 3502.9 3673.09C3501.89 3671.96 3501.89 3671.9 3502.84 3671.9C3503.47 3671.9 3503.91 3672.34 3503.91 3672.84C3503.91 3673.79 3506.82 3674.86 3507.45 3674.23C3507.7 3674.04 3508.52 3674.1 3509.34 3674.42C3510.29 3674.8 3510.98 3674.74 3511.23 3674.36C3511.49 3673.98 3512.56 3673.79 3513.63 3673.98C3514.83 3674.17 3516.09 3673.91 3516.85 3673.41C3517.48 3672.9 3518.56 3672.65 3519.19 3672.9C3519.82 3673.09 3520.32 3673.03 3520.32 3672.72C3520.32 3671.52 3536.1 3673.73 3538.56 3675.3C3539.07 3675.62 3539.57 3675.56 3539.83 3675.11C3540.39 3674.23 3548.09 3675.49 3548.09 3676.57C3548.09 3676.94 3548.35 3676.88 3548.66 3676.38C3549.1 3675.68 3549.48 3675.62 3550.11 3676.12C3550.55 3676.5 3552.51 3676.94 3554.4 3677.13C3561.66 3677.95 3567.41 3679.66 3566.71 3680.79C3566.52 3681.05 3566.65 3681.49 3567.03 3681.68C3567.47 3681.93 3567.47 3682.44 3567.15 3682.81C3566.9 3683.26 3566.59 3684.39 3566.52 3685.46C3566.46 3686.47 3566.14 3687.93 3565.77 3688.62C3564.88 3690.39 3560.08 3705.28 3560.08 3706.23C3560.08 3706.61 3559.52 3708.06 3558.82 3709.45C3558.13 3710.77 3556.93 3713.93 3556.17 3716.33C3554.28 3722.51 3546.96 3740.82 3546.01 3741.76C3545.57 3742.2 3543.61 3742.58 3541.59 3742.65C3539 3742.77 3538 3743.02 3538 3743.66C3538 3744.16 3537.74 3744.35 3537.36 3744.16C3536.99 3743.91 3536.73 3744.67 3536.73 3745.99C3536.73 3749.27 3537.3 3750.22 3538.88 3749.78C3541.28 3749.21 3542.16 3750.91 3541.21 3754.51C3540.52 3757.35 3532.44 3774.14 3530.99 3775.91C3529.41 3777.8 3525.37 3785.25 3525.37 3786.26C3525.37 3786.89 3525.18 3787.39 3524.87 3787.39C3524.61 3787.39 3523.73 3788.91 3522.91 3790.68C3522.09 3792.51 3520.95 3794.84 3520.51 3795.91C3520.01 3796.92 3519.06 3799.76 3518.37 3802.23C3517.74 3804.62 3516.73 3808.22 3516.22 3810.11C3514.71 3815.48 3514.64 3820.65 3516.03 3821.92C3517.04 3822.86 3517.17 3822.8 3517.8 3821.22C3518.11 3820.28 3518.43 3818.89 3518.49 3818.13C3518.49 3816.8 3518.56 3816.8 3519 3818C3519.44 3819.01 3519.69 3818.64 3520.58 3815.8C3521.14 3813.9 3522.6 3809.61 3523.79 3806.33C3524.93 3803.05 3526.13 3799.2 3526.32 3797.87C3526.57 3796.29 3526.89 3795.66 3527.2 3796.17C3527.58 3796.73 3527.96 3796.42 3528.46 3795.16C3528.84 3794.21 3529.85 3792.13 3530.74 3790.61C3531.62 3789.1 3532.31 3787.27 3532.31 3786.64C3532.31 3785.94 3532.63 3785.63 3532.95 3785.82C3533.32 3786.01 3533.64 3786.01 3533.64 3785.69C3533.7 3785.44 3533.83 3784.62 3533.89 3783.92C3534.15 3782.09 3535.41 3779.32 3535.41 3780.45C3535.47 3780.96 3537.43 3777.55 3539.76 3772.88C3542.1 3768.21 3544.5 3763.66 3545.13 3762.78C3545.69 3761.96 3546.2 3760.82 3546.2 3760.32C3546.2 3759.81 3546.58 3758.93 3547.02 3758.42C3547.53 3757.86 3548.28 3756.4 3548.72 3755.21C3549.73 3752.68 3550.62 3751.86 3551.56 3752.68C3551.94 3753 3555.35 3753.82 3559.14 3754.57C3562.99 3755.27 3567.66 3756.22 3569.55 3756.59C3571.45 3756.97 3573.72 3757.23 3574.54 3757.16C3575.36 3757.04 3576.62 3757.29 3577.38 3757.67C3578.14 3757.98 3580.53 3758.74 3582.81 3759.31C3589.18 3760.82 3601.11 3764.8 3601.11 3765.43C3601.11 3765.68 3601.74 3765.94 3602.56 3765.94C3603.32 3765.94 3605.53 3766.76 3607.42 3767.83C3609.31 3768.84 3611.33 3769.91 3611.84 3770.16C3613.16 3770.79 3614.87 3772.18 3618.65 3775.84C3620.55 3777.67 3622.19 3779.19 3622.25 3779.19C3622.38 3779.19 3622.57 3778.75 3622.82 3778.24C3623.33 3776.85 3621.87 3773.32 3620.36 3772.12C3619.6 3771.49 3618.59 3770.23 3618.21 3769.22C3617.83 3768.27 3616.7 3767.13 3615.75 3766.69C3614.8 3766.31 3612.85 3765.05 3611.33 3763.98C3608.49 3761.96 3597.39 3757.1 3595.56 3757.1C3594.92 3757.1 3593.66 3756.66 3592.71 3756.15C3591.71 3755.65 3589.87 3755.14 3588.68 3755.02C3587.41 3754.89 3586.09 3754.32 3585.65 3753.75C3585.14 3753.06 3583.5 3752.62 3580.34 3752.37C3577.69 3752.18 3575.11 3751.61 3574.16 3750.98C3572.58 3749.97 3571.82 3749.78 3567.22 3749.59C3565.77 3749.53 3565.13 3749.21 3565.13 3748.52C3565.13 3747.76 3565.51 3747.57 3566.46 3747.82C3567.22 3748.01 3568.54 3747.88 3569.49 3747.51C3571.13 3746.87 3573.34 3746.37 3575.23 3746.24C3575.74 3746.18 3576.31 3745.99 3576.49 3745.74C3576.68 3745.49 3577.5 3745.04 3578.39 3744.79C3579.78 3744.35 3579.84 3744.41 3579.08 3745.36C3578.58 3745.93 3578.51 3746.37 3578.89 3746.37C3579.27 3746.37 3579.65 3746.05 3579.78 3745.61C3579.9 3745.23 3580.6 3744.85 3581.29 3744.73C3581.92 3744.67 3583.5 3744.29 3584.7 3743.91C3592.21 3741.7 3594.73 3741.13 3596.75 3741.26C3598.14 3741.32 3599.91 3740.88 3601.36 3740C3602.69 3739.24 3604.77 3738.42 3606.03 3738.1C3609.88 3737.34 3615.75 3735.01 3619.41 3732.8C3621.31 3731.66 3624.34 3730.09 3626.17 3729.27C3628.06 3728.45 3629.83 3727.06 3630.46 3726.05C3631.03 3725.1 3631.97 3724.28 3632.6 3724.28C3635.95 3724.28 3637.34 3718.03 3635 3713.42C3634.24 3711.91 3633.11 3710.65 3632.54 3710.52C3631.59 3710.33 3631.4 3710.77 3631.4 3713.3C3631.4 3717.97 3629.83 3720.62 3625.91 3722.32C3624.15 3723.14 3621.56 3724.66 3620.23 3725.73C3617.58 3727.94 3615.56 3729.01 3609.31 3731.54C3602.43 3734.31 3595.24 3736.46 3592.78 3736.59C3591.52 3736.59 3590 3737.03 3589.37 3737.53C3588.68 3738.1 3588.42 3738.16 3588.74 3737.66C3588.99 3737.22 3588.86 3736.9 3588.36 3736.9C3586.97 3736.9 3585.77 3737.98 3586.21 3738.73C3586.85 3739.74 3585.65 3739.62 3584.76 3738.54C3584.07 3737.72 3581.29 3737.85 3581.8 3738.73C3582.24 3739.36 3578.77 3739.36 3577.95 3738.67C3577.38 3738.23 3577.06 3738.29 3576.81 3738.86C3576.62 3739.36 3575.55 3739.81 3574.41 3739.81C3573.34 3739.87 3570.56 3740.25 3568.29 3740.63C3566.02 3741 3562.1 3741.38 3559.64 3741.51C3554.53 3741.7 3554.59 3741.76 3555.73 3737.16C3556.24 3735.26 3556.74 3734.44 3557.31 3734.63C3558.19 3734.95 3558.32 3734.69 3559.45 3729.33C3559.9 3727.44 3560.78 3724.97 3561.41 3723.9C3562.1 3722.83 3562.61 3721.44 3562.61 3720.93C3562.61 3719.55 3565.64 3710.39 3566.33 3709.51C3566.96 3708.75 3570.69 3697.83 3573.65 3688.18C3574.73 3684.64 3575.74 3682.37 3576.49 3681.99C3578.07 3681.17 3578.58 3681.17 3578.01 3682.12C3577.69 3682.62 3578.32 3682.69 3580.16 3682.44C3581.86 3682.25 3582.68 3682.31 3582.43 3682.75C3582.17 3683.13 3582.55 3683.26 3583.44 3682.94C3584.32 3682.69 3584.7 3682.75 3584.51 3683.07C3584.26 3683.44 3584.89 3683.7 3585.84 3683.7C3587.86 3683.76 3598.02 3687.17 3603.32 3689.57C3605.4 3690.58 3608.56 3691.97 3610.26 3692.72C3616.26 3695.37 3619.73 3697.33 3623.39 3700.04C3625.34 3701.56 3627.18 3702.82 3627.49 3702.82C3628.5 3702.88 3633.87 3708.38 3636.14 3711.66L3638.54 3715.13L3638.22 3711.91C3637.84 3707.68 3634.75 3701.24 3632.67 3700.3C3631.78 3699.92 3629.76 3698.4 3628.25 3696.95C3625.41 3694.24 3622.76 3692.53 3614.99 3688.43C3607.86 3684.64 3604.83 3683.19 3603 3682.81C3601.99 3682.62 3601.05 3682.12 3600.86 3681.61C3600.67 3681.11 3599.97 3680.73 3599.34 3680.73C3598.65 3680.73 3597.76 3680.29 3597.32 3679.78C3596.88 3679.22 3596.38 3678.9 3596.25 3679.09C3596.12 3679.22 3594.42 3678.77 3592.53 3678.14C3590.63 3677.45 3588.74 3677.13 3588.36 3677.32C3587.98 3677.58 3587.29 3677.26 3586.85 3676.63C3586.4 3676.06 3584.7 3675.3 3583.06 3674.99C3579.15 3674.23 3577.57 3672.84 3578.07 3670.57C3578.7 3667.73 3577.44 3666.09 3574.73 3666.34C3572.71 3666.53 3572.2 3666.91 3570.94 3669.18C3569.49 3671.83 3569.36 3671.9 3566.84 3671.58C3565.39 3671.39 3563.49 3671.07 3562.61 3670.89C3561.73 3670.7 3559.77 3670.44 3558.19 3670.32C3552.7 3669.81 3544.56 3668.61 3541.02 3667.79C3538.69 3667.22 3536.67 3667.1 3535.53 3667.48C3534.52 3667.73 3533.51 3667.86 3533.39 3667.67C3533.2 3667.54 3531.12 3667.29 3528.72 3667.16C3526.38 3667.04 3522.85 3666.72 3520.95 3666.53C3519.06 3666.28 3517.36 3666.21 3517.17 3666.4ZM3599.85 3740.06C3599.85 3740.37 3599.53 3740.69 3599.15 3740.69C3598.84 3740.69 3598.71 3740.37 3598.9 3740.06C3599.09 3739.68 3599.41 3739.43 3599.59 3739.43C3599.72 3739.43 3599.85 3739.68 3599.85 3740.06ZM3527.96 3794.15C3527.2 3795.41 3527.08 3795.03 3527.64 3793.39C3527.9 3792.82 3528.21 3792.51 3528.34 3792.7C3528.53 3792.82 3528.34 3793.52 3527.96 3794.15ZM3521.02 3811.44C3520.45 3812.83 3520.39 3812.83 3520.39 3811.63C3520.32 3810.94 3520.51 3810.11 3520.76 3809.93C3521.52 3809.17 3521.65 3809.93 3521.02 3811.44Z" fill="black"/>
<path d="M3678.55 3724.28C3676.72 3725.73 3673.44 3732.17 3674.07 3733.18C3674.7 3734.19 3675.58 3733.81 3675.2 3732.61C3675.02 3732.04 3675.77 3733.31 3676.91 3735.51C3678.05 3737.66 3679.12 3739.17 3679.31 3738.92C3679.5 3738.61 3680.63 3738.1 3681.77 3737.85C3684.1 3737.34 3684.55 3736.71 3685.68 3731.79C3686.88 3726.36 3685.93 3723.84 3682.46 3723.27C3680.82 3723.02 3679.88 3723.27 3678.55 3724.28Z" fill="black"/>
<path d="M3826.43 3765.43C3826.43 3765.81 3826.24 3766 3826.05 3765.75C3825.8 3765.56 3824.85 3765.75 3823.84 3766.31C3822.83 3766.82 3822.01 3767.07 3822.01 3766.94C3822.01 3766.63 3815.07 3769.6 3811.59 3771.43C3810.58 3771.93 3807.74 3773.38 3805.28 3774.64C3802.88 3775.84 3800.36 3777.3 3799.79 3777.8C3799.22 3778.24 3798.4 3778.49 3798.09 3778.24C3797.71 3778.05 3797.39 3778.24 3797.39 3778.68C3797.39 3780.26 3796.13 3777.67 3796.13 3776.03C3796.13 3774.27 3793.8 3772.88 3791.08 3772.88C3790.2 3772.94 3787.3 3772.88 3784.52 3772.88C3781.8 3772.88 3779.28 3773.07 3778.84 3773.38C3778.46 3773.7 3776.19 3774.64 3773.73 3775.4C3771.33 3776.22 3768.17 3777.61 3766.78 3778.56C3765.39 3779.5 3762.43 3781.27 3760.16 3782.47C3756.81 3784.24 3755.8 3784.55 3754.67 3784.05C3753.85 3783.67 3753.21 3783.04 3753.21 3782.53C3753.21 3781.08 3751.32 3777.86 3750.69 3778.24C3750.31 3778.49 3750.06 3778.12 3750.06 3777.48C3750.06 3776.79 3749.68 3775.91 3749.3 3775.47C3748.61 3774.77 3748.67 3774.71 3749.43 3775.15C3749.93 3775.4 3749.43 3774.64 3748.23 3773.38C3746.02 3770.98 3743.62 3770.1 3742.55 3771.17C3742.17 3771.55 3741.85 3771.68 3741.85 3771.43C3741.85 3770.67 3731.63 3776.03 3729.23 3778.05C3727.34 3779.63 3723.05 3781.65 3721.53 3781.71C3720.96 3781.71 3718.5 3777.04 3718.5 3775.97C3718.5 3775.53 3718 3774.64 3717.43 3773.95C3716.8 3773.32 3716.29 3771.99 3716.29 3771.05C3716.29 3769.53 3716.1 3769.41 3713.01 3769.22C3705.37 3768.78 3695.21 3772.63 3690.73 3777.74C3689.47 3779.25 3688.08 3780.45 3687.83 3780.45C3687.51 3780.45 3686.19 3781.15 3684.86 3782.09L3682.53 3783.67L3680 3778.31C3678.68 3775.28 3677.29 3772.88 3676.97 3772.88C3676.72 3772.88 3675.33 3771.8 3673.94 3770.48C3671.1 3767.7 3667.82 3766.31 3666.18 3767.13C3664.98 3767.83 3661.51 3767.77 3661 3767.07C3660.81 3766.82 3658.8 3767.77 3656.52 3769.28C3654.25 3770.73 3651.41 3772.5 3650.15 3773.13C3648.63 3773.89 3647.37 3775.28 3646.49 3777.04C3645.79 3778.56 3644.41 3780.45 3643.4 3781.27C3642.45 3782.09 3641.25 3783.54 3640.74 3784.43C3639.61 3786.7 3631.53 3794.84 3629.38 3795.98C3627.74 3796.8 3627.62 3796.8 3626.54 3795.16C3625.09 3792.88 3622.19 3789.92 3621.43 3789.92C3620.55 3789.92 3618.78 3787.71 3618.78 3786.57C3618.78 3786.01 3619.03 3785.5 3619.35 3785.5C3619.66 3785.5 3620.23 3784.62 3620.67 3783.61C3621.43 3781.78 3621.37 3781.52 3619.73 3779.82C3617.52 3777.55 3617.14 3777.48 3616.64 3779.5C3616.38 3780.39 3616 3781.08 3615.69 3781.08C3615.37 3781.08 3614.3 3781.9 3613.29 3782.98C3611.27 3785.12 3610.13 3785.25 3604.33 3783.92C3594.67 3781.65 3574.54 3780.77 3567.97 3782.28C3566.59 3782.66 3563.75 3783.29 3561.66 3783.8C3559.58 3784.24 3556.87 3785 3555.67 3785.37C3554.47 3785.75 3552.7 3786.26 3551.75 3786.45C3550.81 3786.64 3549.67 3787.14 3549.23 3787.58C3547.59 3789.16 3542.67 3791.56 3541.15 3791.56C3538.82 3791.5 3537.68 3793.39 3537.93 3797.11C3537.93 3797.81 3538.18 3798.19 3538.37 3797.93C3538.63 3797.74 3539.19 3797.93 3539.7 3798.44C3540.2 3798.94 3540.96 3799.39 3541.34 3799.39C3541.78 3799.39 3541.72 3799.13 3541.15 3798.75C3540.08 3798.06 3547.27 3798.56 3548.41 3799.26C3548.79 3799.51 3549.54 3799.57 3550.18 3799.51C3550.81 3799.39 3551.25 3799.7 3551.25 3800.33C3551.25 3801.15 3551.94 3801.28 3556.17 3801.03C3561.16 3800.71 3565.95 3800.21 3569.17 3799.7C3570.18 3799.51 3571.38 3798.88 3571.82 3798.31C3572.58 3797.24 3572.64 3797.24 3573.84 3798.31C3575.04 3799.45 3575.17 3799.45 3575.8 3798.31C3576.18 3797.68 3576.49 3797.43 3576.49 3797.81C3576.49 3798.12 3576.81 3798 3577.19 3797.49C3577.69 3796.73 3577.76 3796.73 3577.63 3797.81C3577.44 3798.88 3577.76 3799.01 3579.59 3798.82C3580.79 3798.75 3582.43 3798.38 3583.31 3798.06C3584.13 3797.74 3585.08 3797.62 3585.33 3797.81C3586.02 3798.25 3590.06 3797.3 3598.27 3794.78C3605.78 3792.57 3606.92 3792.32 3610.39 3792.32C3613.35 3792.38 3620.11 3795.35 3622.76 3797.74C3624.71 3799.57 3624.84 3800.02 3623.51 3800.02C3622.5 3800.02 3622.25 3801.72 3623.14 3803.05C3623.39 3803.49 3624.4 3804.31 3625.34 3804.75C3627.05 3805.7 3627.05 3805.63 3626.67 3803.8C3626.23 3801.72 3626.42 3801.59 3628.37 3802.6C3629.7 3803.3 3632.92 3802.86 3632.41 3802.04C3631.91 3801.22 3632.86 3800.4 3635.82 3799.01C3637.4 3798.25 3639.8 3796.29 3641.19 3794.65C3642.57 3793.07 3645.42 3789.92 3647.5 3787.71C3649.58 3785.5 3652.17 3782.6 3653.18 3781.21C3657.22 3775.91 3663.66 3773.57 3668.2 3775.72C3671.35 3777.17 3674.2 3782.47 3675.08 3788.34C3675.39 3790.74 3675.96 3793.14 3676.34 3793.52C3677.86 3795.35 3682.78 3794.02 3685.37 3791.18C3686.06 3790.42 3687.64 3789.29 3688.9 3788.66C3690.1 3788.02 3692.56 3786.19 3694.33 3784.62C3696.1 3783.04 3698.18 3781.46 3699 3781.08C3701.21 3780.07 3703.23 3778.87 3704.43 3777.8C3705.06 3777.3 3706.32 3776.66 3707.27 3776.41C3708.28 3776.22 3709.22 3775.97 3709.41 3775.84C3709.98 3775.65 3711.56 3780.64 3711.24 3781.78C3711.05 3782.28 3711.94 3784.74 3713.14 3787.2C3715.09 3791.18 3715.53 3791.69 3717.55 3792.06C3718.75 3792.32 3720.27 3792.19 3720.96 3791.87C3721.59 3791.5 3722.29 3791.43 3722.54 3791.62C3722.73 3791.81 3722.92 3791.75 3722.92 3791.43C3722.92 3791.12 3725.07 3789.86 3727.65 3788.66C3730.24 3787.46 3732.39 3786.07 3732.39 3785.63C3732.39 3785.18 3732.64 3784.93 3732.95 3785.18C3733.33 3785.37 3734.09 3785 3734.72 3784.36C3736.68 3782.41 3741.73 3780.07 3742.48 3780.83C3742.86 3781.21 3744.06 3783.61 3745.2 3786.19C3748.23 3793.07 3751 3795.79 3753.59 3794.21C3753.91 3793.96 3755.42 3793.64 3756.94 3793.45C3758.39 3793.33 3760.16 3792.7 3760.72 3792.19C3761.36 3791.62 3762.37 3791.18 3763 3791.18C3763.63 3791.18 3764.95 3790.3 3765.96 3789.29C3769.24 3785.82 3774.74 3782.91 3779.72 3781.97C3780.61 3781.84 3781.74 3781.52 3782.25 3781.27C3785.21 3780.07 3789.76 3779.95 3790.45 3781.08C3791.21 3782.28 3791.27 3785.06 3790.51 3785.82C3790.14 3786.19 3790.26 3786.89 3790.83 3787.65C3791.4 3788.47 3791.71 3788.59 3791.71 3788.02C3791.71 3787.46 3792.22 3787.65 3793.17 3788.53C3794.68 3789.92 3795.88 3790.42 3795.25 3789.35C3795 3789.03 3795.69 3788.59 3796.7 3788.34C3797.71 3788.15 3799.03 3787.39 3799.67 3786.7C3800.23 3786.07 3801.05 3785.5 3801.5 3785.5C3801.87 3785.5 3803.89 3784.62 3805.91 3783.61C3808 3782.53 3810.02 3781.84 3810.46 3781.97C3810.84 3782.16 3811.53 3781.84 3811.97 3781.33C3812.35 3780.83 3813.8 3779.82 3815.13 3779.06C3816.52 3778.31 3817.59 3777.48 3817.59 3777.3C3817.59 3777.04 3818.73 3776.35 3820.11 3775.72C3821.5 3775.09 3822.64 3774.33 3822.64 3774.01C3822.64 3773.76 3822.83 3773.57 3823.14 3773.63C3823.4 3773.63 3824.6 3773.26 3825.86 3772.69C3827.06 3772.12 3828.89 3771.49 3829.96 3771.24C3832.04 3770.73 3834 3768.96 3834 3767.51C3834 3767.01 3833.24 3766.25 3832.3 3765.87C3829.77 3764.86 3826.43 3764.67 3826.43 3765.43ZM3649.08 3782.28C3649.08 3782.6 3648.63 3783.04 3648.07 3783.23C3647.18 3783.54 3647.12 3783.48 3647.81 3782.66C3648.7 3781.59 3649.08 3781.46 3649.08 3782.28ZM3563.87 3786.01C3563.87 3786.26 3563.3 3786.51 3562.61 3786.57C3561.92 3786.64 3561.35 3786.45 3561.35 3786.07C3561.35 3785.75 3561.92 3785.5 3562.61 3785.5C3563.3 3785.5 3563.87 3785.75 3563.87 3786.01ZM3585.39 3787.71C3587.03 3787.33 3590.38 3788.47 3590.38 3789.35C3590.38 3789.67 3591.07 3789.79 3591.96 3789.54C3592.9 3789.29 3593.54 3789.41 3593.54 3789.86C3593.54 3790.74 3591.39 3791.81 3589.56 3791.81C3588.68 3791.81 3586.97 3792.25 3585.65 3792.82C3584.38 3793.33 3581.1 3793.89 3578.45 3794.08C3575.8 3794.27 3573.28 3794.53 3572.9 3794.65C3572.46 3794.84 3572.08 3794.65 3572.08 3794.34C3572.08 3794.02 3571.63 3793.89 3571.07 3794.15C3570.56 3794.34 3569.43 3794.15 3568.61 3793.71C3567.47 3793.14 3566.84 3793.07 3566.27 3793.58C3565.32 3794.34 3555.16 3794.27 3553.9 3793.45C3553.33 3793.14 3553.52 3792.51 3554.53 3791.12C3555.92 3789.29 3557.56 3788.66 3557.56 3789.98C3557.56 3790.42 3558.25 3790.49 3559.39 3790.23C3560.46 3790.04 3561.41 3790.11 3561.66 3790.49C3561.92 3790.93 3562.48 3790.87 3563.43 3790.3C3565.07 3789.22 3567.53 3788.72 3573.65 3788.09C3576.12 3787.84 3578.64 3787.33 3579.27 3786.95C3580.09 3786.51 3580.91 3786.51 3582.11 3787.14C3583.06 3787.65 3584.51 3787.84 3585.39 3787.71ZM3591.01 3787.02C3591.01 3787.14 3591.2 3787.77 3591.39 3788.34C3591.77 3789.29 3591.64 3789.29 3590.44 3788.59C3588.86 3787.58 3588.74 3786.76 3590.06 3786.76C3590.57 3786.76 3591.01 3786.89 3591.01 3787.02Z" fill="black"/>
<path d="M3183.61 3850.51C3183.8 3850.82 3184.3 3851.14 3184.62 3851.14C3185 3851.14 3185.06 3850.82 3184.87 3850.51C3184.68 3850.13 3184.18 3849.88 3183.86 3849.88C3183.48 3849.88 3183.42 3850.13 3183.61 3850.51Z" fill="black"/>
</svg>
